<svg
   width="300mm"
   height="300mm"
   viewBox="0 0 300 300"
   sodipodi:docname="dessin.svg"
   xmlns:inkscape="http://www.inkscape.org/namespaces/inkscape"
   xmlns:sodipodi="http://sodipodi.sourceforge.net/DTD/sodipodi-0.dtd"
   xmlns="http://www.w3.org/2000/svg"
   xmlns:svg="http://www.w3.org/2000/svg">


  <g
     inkscape:label="Calque 1"
     inkscape:groupmode="layer"
     id="layer1">
    <g
       id="g1542"
       transform="matrix(1.3269319,0,0,1.3907204,-4.1372274,-9.4793779)">
      <path
         style="fill:#000080;stroke-width:0.264583"
         id="path1491"
         d="m 57.339452,24.323062 c -1.516611,2.562637 -3.184986,5.031305 -4.741043,7.569881 -0.08157,0.133075 -2.846509,4.752552 -3.005648,5.018387 -2.935687,4.773057 -5.671576,9.663504 -8.473101,14.515211 -3.625913,6.188546 -7.234796,12.386862 -10.8097,18.605039 -0.513302,0.900472 -1.027478,1.800447 -1.539907,2.701417 -1.186167,2.085557 -1.71056,2.973284 -2.818498,5.109763 -1.26278,2.435069 -2.405874,4.924674 -3.541763,7.42034 -2.551221,5.33994 -4.492853,10.938822 -6.41019,16.52882 -1.438451,4.4351 -2.951893,8.8517 -4.121101,13.36838 -0.665954,2.57259 -0.755295,3.16881 -1.269745,5.69178 -0.0065,0.0374 -0.6292747,3.51576 -0.6460083,3.87609 -0.1500365,3.23074 0.1789623,6.60062 4.1564673,8.33724 5.210783,2.27509 7.072447,-0.20235 9.96867,-2.71576 3.99449,-4.66703 7.343895,-9.84666 10.705937,-14.97619 3.104237,-4.72768 6.262105,-9.41919 9.385477,-14.13408 0.467117,-0.70357 0.92579,-1.41282 1.401352,-2.110711 2.907573,-4.266909 -0.254791,0.504515 2.783994,-4.020537 1.30616,-1.945 2.574417,-3.916847 3.860461,-5.875216 2.43245,-3.686617 4.831982,-7.395032 7.2541,-11.088584 1.389856,-2.03604 2.57561,-4.199279 3.879461,-6.288744 2.326902,-3.728947 -0.959361,1.660023 1.6985,-2.723986 1.769333,-2.734873 3.578053,-5.440806 5.413873,-8.131222 2.080495,-2.990916 4.113096,-6.012087 6.265346,-8.951632 1.498129,-2.055394 2.820641,-4.244173 4.470628,-6.185037 1.404083,-1.546003 2.767052,-3.128844 4.054379,-4.773391 0.988693,-1.291201 1.893478,-2.643542 2.861564,-3.949551 -6.031915,7.855037 -10.017648,-0.568693 -12.296282,-4.508051 -0.230672,-0.39879 0.256169,-0.907825 0.209383,-1.366141 -0.02445,-0.239385 -0.182999,0.445185 -0.280958,0.664974 -0.121211,0.271955 -0.250971,0.54002 -0.376455,0.81003 -1.42902,2.553483 -2.860029,5.107564 -4.308962,7.650303 -1.694622,3.101496 -3.486769,6.143281 -5.107961,9.284631 -1.988153,3.931674 -3.995507,7.853029 -6.157066,11.69262 -2.255078,3.872505 -4.419041,7.797564 -6.700961,11.654266 -1.945553,3.306821 -3.675179,6.724475 -5.209334,10.238989 -1.521325,3.825761 -2.549213,7.815669 -3.442523,11.826358 -0.658778,3.191865 -1.056576,6.427462 -1.460391,9.658932 -0.446728,3.26888 -1.048655,6.51184 -1.699189,9.74535 -0.445204,2.73219 -1.121891,5.41458 -1.691195,8.12076 -0.46186,1.19102 -0.621573,2.49038 -1.111345,3.66911 -0.08137,0.22931 -0.16541,0.45769 -0.244102,0.68794 -0.08496,0.24858 -0.164227,0.49906 -0.246822,0.74844 -0.554697,1.67481 0.593204,-1.93945 1.139912,-1.86965 12.883626,1.6449 12.39624,0.0764 12.142515,5.749 2.411174,-4.83738 5.142613,-9.50981 7.856217,-14.18196 2.108459,-3.47644 4.199197,-6.9678 6.43695,-10.36364 0.818904,-1.24271 1.670987,-2.46323 2.506258,-3.695 2.432338,-3.43994 4.908521,-6.848498 7.334654,-10.292762 3.704551,-5.194395 7.198217,-10.531596 10.55565,-15.955372 3.156826,-5.16287 6.032757,-10.480479 8.627655,-15.94557 1.067972,-2.092232 1.845948,-4.311861 2.786468,-6.459169 0.131312,-0.2998 0.847526,-1.758037 0.953502,-1.975123 0.602954,-1.087538 1.093801,-2.232863 1.664905,-3.336234 0.36685,-0.708758 0.81213,-1.385811 1.22564,-2.067584 0.85249,-1.418643 1.73847,-2.811669 2.5839,-4.23396 0.64109,-0.921078 1.24805,-1.863474 1.82198,-2.827676 0.39993,-0.671891 0.20337,-0.397706 0.44882,-0.726948 0.0899,-0.137576 0.17739,-0.276704 0.2696,-0.412724 0.0103,-0.01521 -0.0119,0.03571 -0.0236,0.04983 -0.22638,0.271807 -0.38243,0.981866 -0.68966,0.806546 -3.96398,-2.262037 -7.597638,-5.060493 -11.340826,-7.671721 -0.08263,-0.05765 0.284335,-0.438846 -0.06474,-0.04037 -1.67413,2.700811 -3.304871,5.428588 -4.977508,8.130251 -1.964733,3.227975 -3.930047,6.455241 -5.923936,9.665528 -2.497839,3.975754 -4.696431,8.125751 -6.982974,12.22406 -3.11486,5.342096 -6.267288,10.66247 -9.410043,15.988334 -1.68066,3.003365 -3.50564,5.929524 -5.055304,9.005189 -0.685588,1.360707 -1.317342,2.747872 -1.976485,4.121584 -2.421679,4.57849 -4.618001,9.260051 -6.627498,14.032531 -1.736042,4.27098 -3.259595,8.62032 -4.779404,12.971 -0.728856,2.09821 -1.236054,4.26408 -1.670209,6.43967 -0.04796,0.27379 -0.08771,0.54914 -0.143867,0.82136 -0.05797,0.28103 -0.162557,0.55096 -0.222652,0.83154 -0.197718,0.92313 -0.328385,1.85448 -0.480248,2.78546 -0.161782,1.0072 -0.273629,2.01545 -0.530767,3.00255 -0.464206,2.24144 -0.972519,4.47339 -1.425729,6.71708 -1.348306,5.60667 -2.038688,2.02086 12.42382,6.77317 0.383858,0.12613 0.468426,-0.6585 0.6994,-0.99002 0.275188,-0.39499 0.546036,-0.79298 0.819054,-1.18947 2.7383,-4.10087 5.553816,-8.14986 8.361315,-12.2038 3.737777,-5.31824 7.391326,-10.69213 10.987643,-16.10667 3.21173,-5.0452 6.514597,-10.02905 9.663501,-15.11415 3.194572,-4.914325 6.192049,-9.949846 9.257705,-14.944044 2.176362,-3.629917 4.367942,-7.250189 6.500532,-10.906069 1.30573,-2.219669 2.79635,-4.3209 4.19734,-6.479707 1.69635,-2.354593 3.39641,-4.706575 5.0717,-7.076556 1.61604,-2.289707 3.3128,-4.514954 4.89344,-6.829756 1.67385,-2.389907 3.3179,-4.798772 5.00651,-7.177947 1.00065,-1.271016 1.73617,-2.715864 2.57659,-4.089363 0.2675,-0.437158 0.57741,-0.846924 0.86119,-1.273686 2.09874,-3.195537 3.4059,-7.336523 -1.3332,-10.802271 -5.05664,-3.697962 -8.5967,0.116478 -11.25614,3.002159 -2.64402,2.830994 -4.88638,5.99041 -7.13919,9.130718 -1.91255,2.728899 -3.65421,5.577292 -5.35886,8.439763 -2.075825,3.485655 -4.003301,7.055371 -5.895625,10.642791 -2.425605,4.208295 -4.261858,8.711273 -6.188538,13.159694 -1.422125,3.504383 -2.981553,6.94988 -4.500888,10.412479 -0.221882,0.535347 -0.451451,1.06757 -0.665647,1.606039 -0.22648,0.569347 -0.428193,1.148363 -0.656248,1.71708 -0.82101,2.047399 -1.777897,4.045789 -2.684558,6.055836 -1.858396,4.061436 -3.544491,8.19883 -5.418026,12.25299 -1.859725,3.67666 -3.701495,7.36489 -5.636991,11.00258 -1.663829,2.95793 -2.951789,6.09567 -4.201615,9.24374 -0.983384,2.03983 -2.006719,4.05872 -3.034045,6.0764 -0.771176,1.41488 -1.426374,2.8912 -2.201212,4.30402 -0.411049,0.7495 -0.850374,1.48316 -1.270193,2.22779 -0.182385,0.31464 -0.364771,0.62928 -0.547156,0.94392 -0.04513,0.0599 -0.191595,0.2294 -0.135392,0.17973 0.856461,-0.75697 1.521153,-2.82382 2.539357,-2.30442 11.864697,6.05242 7.375802,12.58449 10.941047,6.84683 3.504985,-5.62468 7.19043,-11.13364 10.918243,-16.61219 4.788516,-7.20795 9.579758,-14.41412 14.371272,-21.62011 2.866374,-4.56532 6.078665,-8.889554 9.698035,-12.882465 2.95794,-3.110352 5.95954,-6.179212 9.01712,-9.191631 0.57433,-0.549007 1.15035,-1.096263 1.72299,-1.647025 1.32924,-1.27843 2.53075,-2.427296 3.80346,-3.767987 2.0332,-2.141818 3.9101,-4.407443 5.77749,-6.69254 3.29206,-4.163227 6.19253,-8.621541 9.09258,-13.062191 1.88256,-2.681253 3.49836,-5.534189 5.27621,-8.282366 1.06051,-1.542348 1.82213,-3.262135 2.83363,-4.830992 0.78925,-1.422329 1.76368,-2.733681 2.4335,-4.222417 0.16366,-0.363749 0.29439,-0.741436 0.44158,-1.112155 -0.78724,-8.014258 1.14528,-7.146636 -9.6672,-8.861478 -0.73704,-0.116892 -1.30864,0.72213 -1.92563,1.141895 -1.30716,0.889304 -2.39201,2.127093 -3.49764,3.243169 -2.42805,2.366894 -4.68598,4.895538 -6.85172,7.502388 -2.39654,2.87147 -4.57477,5.909852 -6.83222,8.888473 -1.34165,1.831573 -2.72288,3.640529 -4.22379,5.345242 -1.36262,1.81184 -2.93071,3.458414 -4.3369,5.233686 -0.4138,0.522409 -0.80491,1.062402 -1.20736,1.593601 -2.31906,3.138834 -4.56283,6.327362 -6.71715,9.581711 -2.03255,3.093418 -3.91723,6.277528 -5.844508,9.436531 -1.585489,2.882694 -3.400547,5.627124 -5.15775,8.405664 -1.975578,3.273243 -4.108519,6.447208 -6.077786,9.723807 -2.412397,4.06717 -4.865706,8.11188 -7.207435,12.22035 -2.324037,4.13288 -4.680718,8.2465 -7.042166,12.35812 -2.202688,3.72203 -3.967975,7.67711 -5.756849,11.6081 -0.986883,2.34514 -1.945505,4.7115 -2.662098,7.15527 -1.977456,6.9234 1.643806,6.82687 10.901122,8.48142 0.360561,0.0644 2.536486,-2.72153 2.882434,-3.14894 2.807904,-3.5006 5.84399,-6.81145 8.905587,-10.09011 2.394323,-2.61724 5.037738,-4.98652 7.662137,-7.36785 2.542339,-2.25749 5.10113,-4.49758 7.660817,-6.73645 1.889965,-1.59532 3.921125,-3.00866 5.851805,-4.55167 2.24341,-1.75409 4.54112,-3.43514 6.79141,-5.18018 2.73115,-2.23075 5.26807,-4.71044 7.61178,-7.34512 1.54906,-1.74138 2.46226,-2.9292 3.91796,-4.74626 3.91803,-5.12126 7.20449,-10.670376 10.36002,-16.280411 2.69006,-4.88302 5.72252,-9.562906 8.54096,-14.369788 2.00238,-3.416403 3.88504,-6.903466 5.90881,-10.306706 1.08276,-1.736254 2.18142,-3.463226 3.29337,-5.181237 1.2467,-1.849768 2.32091,-3.806463 3.4872,-5.705933 1.24704,-1.934562 2.33592,-3.960479 3.51811,-5.933474 0.60018,-0.984964 1.1066,-2.021586 1.64962,-3.037874 0.0964,-0.180325 0.22427,-0.345694 0.29632,-0.537031 0.2953,-0.78427 1.26001,-1.67999 0.80295,-2.382395 -2.06211,-3.168997 -5.16352,-5.524259 -7.74527,-8.28639 -1.19784,0.445174 -2.4334,0.799663 -3.59351,1.335521 -0.39857,0.184103 -2.35443,1.726856 -2.6667,1.984674 -1.86251,1.537745 -3.53958,3.242834 -5.2236,4.969814 -4.0565,4.350145 -7.74226,9.020564 -11.22747,13.834901 -0.39203,0.544989 -0.78512,1.089218 -1.17609,1.634964 -0.84783,1.183439 -1.23974,1.708888 -2.02203,2.943368 -0.90573,1.429274 -1.74502,2.904789 -2.61876,4.353811 -1.95935,3.225916 -3.86403,6.484313 -5.80427,9.721625 -1.449,2.289675 -2.68732,4.746868 -4.41144,6.849097 -0.89875,1.226031 -2.00145,2.275726 -3.05513,3.364275 -0.8888,1.019804 -1.7959,2.023141 -2.69287,3.035694 -1.18552,1.286362 -2.38278,2.562137 -3.56588,3.850769 -1.21404,1.227977 -2.29776,2.591872 -3.67742,3.643681 -1.22559,0.962657 -2.512849,1.841018 -3.755565,2.780805 -2.245434,1.405591 -4.134911,3.28021 -6.010222,5.12971 -3.000346,2.75986 -5.491755,5.99183 -7.998592,9.18856 -1.476124,1.86359 -2.798239,3.84619 -4.042423,5.87027 -0.603266,1.12655 -1.318141,2.18578 -1.944132,3.29987 -0.386591,0.8812 -0.934638,1.60776 -1.345528,2.51178 -0.151728,0.33382 -0.266065,0.68341 -0.399095,1.02511 -0.07116,0.21166 -0.136168,0.4255 -0.213487,0.635 -0.03464,0.0939 0.165682,-0.34588 0.08391,-0.28822 -0.121219,0.0855 -0.176673,0.24407 -0.223264,0.38488 -0.341328,1.03156 -1.660887,2.31165 -0.937135,3.12209 2.698067,3.02123 6.634816,4.64852 9.952222,6.97278 0.894059,-0.51703 1.801572,-1.01145 2.682172,-1.55108 1.108159,-0.67907 4.156839,-2.7548 5.065349,-3.3886 2.168076,-1.51251 4.58065,-3.25482 6.650173,-4.88044 1.275277,-1.00173 2.514257,-2.04883 3.771387,-3.07325 5.24588,-4.34731 10.38876,-8.82102 15.26144,-13.58594 2.59512,-2.53773 3.62023,-3.65864 6.08277,-6.24524 2.45086,-2.66676 4.87935,-5.363632 7.12174,-8.210647 1.6886,-2.143892 3.26214,-4.384273 4.87342,-6.586315 2.03117,-2.684873 4.09425,-5.354442 6.29894,-7.900276 1.97067,-1.829316 4.16279,-3.393913 6.24743,-5.086916 2.08908,-1.622025 4.07779,-3.366796 6.12022,-5.04507 0.98371,-0.878755 2.06204,-1.615762 3.17088,-2.321065 1.07377,-0.776346 2.22526,-1.444048 3.28774,-2.2362 0.44869,-0.334536 0.87873,-0.693431 1.32146,-1.035822 0.94793,-0.748986 1.92628,-1.452412 2.84939,-2.232586 -0.005,0.01262 -0.0269,0.04567 -0.0157,0.0379 0.46846,-0.323725 0.54815,-0.428545 1.00889,-0.77175 0.31494,-0.23459 0.728,-0.487389 1.03935,-0.709639 1.29657,-0.824915 2.44587,-1.849032 3.70705,-2.722858 1.28177,-0.892072 2.55968,-1.793158 3.63597,-2.936301 0.26989,-0.286655 0.51613,-0.594686 0.7742,-0.892027 0.98471,-1.075746 1.71213,-2.344095 2.40565,-3.617547 0.15578,-0.352346 0.40664,-0.676601 0.46733,-1.057035 0.93865,-5.884449 0.62712,-6.161254 -7.18851,-9.724318 -0.97679,-0.445312 -2.10037,0.481621 -3.09985,0.873352 -1.00124,0.392415 -2.43914,1.547847 -3.29002,2.180625 -1.54972,1.257096 -3.18415,2.426507 -4.65861,3.775069 -1.16987,1.069975 -1.2647,1.23394 -2.29102,2.38737 -1.19703,1.490271 -2.40455,2.973115 -3.51559,4.52909 -1.16598,1.739254 -2.34302,3.467507 -3.40137,5.275495 -1.29575,2.10965 -3.81032,6.635846 -1.64903,8.845055 2.19583,2.244514 5.67684,2.68545 8.51525,4.028173 0.87594,-0.429466 1.78359,-0.799534 2.62783,-1.288396 0.34499,-0.199774 2.37328,-1.838029 2.65701,-2.070418 1.60341,-1.313278 3.15883,-2.673829 4.69712,-4.062201 0.42768,-0.388564 0.85863,-0.773567 1.28305,-1.16569 0.56269,-0.519869 1.13223,-1.032653 1.68181,-1.566357 0.12103,-0.117534 -0.24752,0.43929 -0.37977,0.334547 -10.697,-8.472072 -12.32362,-4.776497 -10.08006,-9.313593 -2.3516,2.843274 -4.54524,5.811385 -6.75911,8.761897 -2.43092,3.256944 -4.93257,6.466869 -7.51615,9.604666 -1.94835,2.29354 -4.04892,4.449754 -6.21688,6.534197 -1.19728,1.192779 -2.53961,2.210054 -3.84028,3.281275 -1.2652,1.130279 -2.49715,2.295031 -3.80976,3.37103 -1.46001,1.148633 -2.97645,2.222553 -4.44407,3.3611 -1.69637,1.363581 -3.46672,2.634062 -5.20707,3.942985 -2.2496,1.667976 -4.47295,3.371651 -6.67445,5.102566 -1.54743,1.118539 -2.92855,2.430098 -4.29088,3.760625 -1.3267,1.35382 -2.46114,2.84573 -3.39083,4.49507 -0.47707,0.91596 -1.02508,1.78588 -1.5966,2.64428 -0.88299,1.42074 -1.7894,2.82404 -2.7008,4.22615 -0.8519,1.32038 -1.67183,2.66484 -2.4193,4.04731 0.0494,-0.10121 0.21516,-0.39418 0.14817,-0.30365 -0.80867,1.09293 -1.30524,2.38489 -2.077778,3.49894 -1.132255,1.8952 -2.419522,3.68823 -3.633798,5.52981 -0.982602,1.43108 -1.927476,2.88643 -2.845948,4.35964 -0.890635,1.45063 -1.812769,2.88443 -2.780239,4.28545 -0.983581,1.47022 -1.948215,2.94075 -2.810682,4.48696 -0.793774,1.39232 -1.67004,2.73312 -2.527271,4.0868 -0.856671,1.41081 -1.573678,2.8838 -2.115714,4.44209 -0.05221,0.14377 -0.09013,0.29358 -0.156639,0.43131 -0.02016,0.0418 0.04358,-0.17488 0.01513,-0.13827 -0.329356,0.42395 -0.513985,0.94273 -0.76405,1.41778 -0.475803,0.90388 -0.302612,0.58261 -0.753369,1.39077 -0.717601,1.31883 -1.465737,2.60925 -2.180559,3.93294 -0.604668,0.92502 -1.003771,1.95669 -1.481187,2.94572 -0.03166,0.0656 0.103555,-0.26788 0.0588,-0.21043 -0.129612,0.1664 -0.213379,0.3639 -0.320067,0.54585 -3.588237,6.44825 -0.318966,5.32311 9.837621,10.23151 0.37397,0.18073 0.649261,-0.5191 0.956416,-0.79869 0.351107,-0.31961 0.677865,-0.66498 1.016799,-0.99747 1.589371,-1.66938 2.913065,-3.58955 4.603178,-5.1614 1.730542,-1.64847 3.529076,-3.22119 5.236308,-4.8944 1.301899,-1.25891 2.739409,-2.36426 4.082859,-3.57815 1.67027,-1.44444 3.03596,-3.18849 4.52888,-4.80509 1.79401,-1.93134 3.40482,-4.00701 4.90598,-6.17111 1.38098,-1.80922 2.59424,-3.73562 3.79888,-5.66394 0.97795,-1.53854 1.94868,-3.07983 2.87715,-4.64912 0.62621,-1.01651 1.33915,-1.97318 1.96794,-2.98792 1.0965,-1.76956 0.15953,-0.34776 0.90558,-1.46511 1.05176,-1.55806 2.06985,-3.13805 3.14745,-4.67937 1.08993,-1.65719 2.15106,-3.32158 3.39263,-4.87041 1.52668,-2.05228 2.95025,-4.17509 4.46041,-6.23927 1.38858,-1.69676 2.64371,-3.49617 3.93365,-5.26754 1.11799,-1.40205 2.2733,-2.7698 3.51285,-4.06638 1.34495,-1.513603 2.91157,-2.786683 4.42937,-4.117572 2.03921,-1.793033 4.26408,-3.356382 6.42296,-4.998905 2.83176,-2.152203 5.39962,-4.60071 7.79947,-7.21854 1.93149,-2.135042 3.74426,-4.372512 5.51803,-6.638599 0.61131,-0.605676 1.10531,-1.326041 1.70588,-1.940108 0.0574,-0.05869 -0.20586,0.239417 -0.12938,0.20958 0.17206,-0.06713 0.29566,-0.22142 0.44349,-0.332129 1.43996,-1.195801 3.00708,-2.21818 4.59539,-3.202509 1.59466,-0.997884 3.12488,-2.09232 4.67268,-3.160191 1.2786,-0.862222 2.40497,-1.897946 3.44623,-3.029567 0.25591,-0.328861 0.5254,-0.647596 0.76774,-0.986583 0.21623,-0.302464 0.40064,-0.626504 0.6067,-0.935988 0.3799,-0.570605 0.78848,-1.132644 1.10549,-1.743458 0.23387,-0.450644 0.43793,-0.916149 0.6569,-1.374222 0.41761,-1.100839 1.04206,-2.103655 1.44534,-3.21306 0.14644,-0.402829 0.26317,-0.815843 0.39476,-1.223765 0.3975,-1.222676 0.72782,-2.45914 0.9611,-3.723629 0.0394,-0.393681 0.18547,-0.791141 0.11828,-1.181044 -0.87166,-5.058635 -1.06252,-5.853224 -7.31817,-7.716952 -1.09348,-0.325776 -2.26184,0.358455 -3.35075,0.699173 -1.10748,0.346527 -2.67045,1.458359 -3.61988,2.076534 -3.4968,2.568625 -6.68456,5.544092 -9.80172,8.555575 -2.72739,2.773508 -5.15124,5.776163 -7.28263,9.025646 -1.12705,1.716482 -2.26179,3.432485 -3.16068,5.281332 -1.11902,2.655462 -1.07651,4.976413 0.48486,7.702068 1.0905,1.90368 3.1257,2.766889 5.07786,3.308528 -2.43418,-1.186154 -2.3581,-0.758709 -3.88251,-2.934772 -1.35357,-1.932191 -0.045,-0.340339 -0.5599,-1.296635 -0.0206,-0.03818 -0.0825,-0.02687 -0.12369,-0.0403 -0.52554,1.481754 -1.50811,2.782673 -1.97269,4.287975 -0.17511,0.567378 -0.27237,1.155915 -0.40856,1.733873 2.5184,2.642235 4.5391,5.870758 7.55518,7.926708 0.83465,0.568946 1.96645,-0.471435 2.92806,-0.780691 0.39389,-0.126677 0.75596,-0.337333 1.12572,-0.523009 1.32609,-0.665898 2.55449,-1.467888 3.79031,-2.284331 2.84197,-1.801955 5.6526,-3.64931 8.41352,-5.57313 2.4053,-1.709632 4.64647,-3.629618 6.88816,-5.544013 1.43238,-1.377977 3.12365,-2.397691 4.77255,-3.479215 0.84681,-0.647587 1.76528,-1.174435 2.71694,-1.643018 0.86373,-0.333888 1.72436,-0.709464 2.4954,-1.236683 0.36363,-0.248637 0.69597,-0.540184 1.04395,-0.810276 -13.90933,-7.458811 -12.56756,-1.878534 -11.05798,-7.875921 0.019,-0.0755 -0.0762,0.137345 -0.12857,0.194992 -0.0216,0.02376 -0.0244,-0.09743 -0.052,-0.081 -0.13927,0.08306 -0.25708,0.197707 -0.38561,0.29656 -0.88848,0.726734 -1.78577,1.442538 -2.68165,2.160135 -0.40753,0.326428 -0.77946,0.650045 -1.24723,0.87588 -0.81923,0.369676 -1.68974,0.804069 -2.52786,1.197562 -1.9312,1.071541 -3.95376,1.936811 -5.97623,2.814807 -2.22347,1.006295 -4.39765,2.119717 -6.47503,3.400983 -2.0795,1.339948 -4.08498,2.787298 -6.10084,4.219525 -1.4408,1.128551 -2.91557,2.251575 -4.2084,3.554264 -0.89379,0.900613 -1.12992,1.219893 -1.89611,2.140228 -1.7608,2.141529 -3.23508,4.492736 -4.65069,6.870112 -1.12541,1.892613 -2.12523,3.857385 -3.00078,5.877013 -0.39472,1.078013 -1.02708,2.034302 -1.63956,2.998605 -0.83641,1.33351 -1.43068,2.799569 -2.2706,4.128887 -0.94569,1.36382 -1.71077,2.83834 -2.59101,4.24336 -0.61547,1.04977 -1.14402,2.14609 -1.71283,3.22098 -0.37935,0.71687 -0.16195,0.51061 -0.42202,0.74031 -0.63403,0.86271 -1.04201,1.87557 -1.73642,2.69382 -0.94691,1.37327 -1.85635,2.76933 -2.72504,4.19341 -0.885,1.67201 -1.92169,3.25504 -2.90189,4.87118 -1.18917,1.87607 -2.41276,3.72995 -3.63209,5.58655 -0.20214,0.32488 -0.4132,0.64437 -0.60642,0.97463 -0.21565,0.36859 -0.40603,0.75154 -0.6198,1.12122 -0.0488,0.0844 -0.51015,0.74995 -0.51621,0.75892 -0.57143,0.84655 -0.39305,0.58333 -1.00017,1.60219 -0.54675,0.76368 -0.93246,1.63992 -1.51412,2.37761 -0.55265,0.67982 -0.95392,1.4471 -1.39535,2.20017 -0.13769,0.23489 -0.3464,0.49191 -0.48865,0.70623 -0.83178,1.32427 -1.7232,2.60695 -2.54806,3.93666 -0.89295,1.51332 -1.8181,3.00595 -2.75727,4.49045 -1.08453,1.69258 -2.10452,3.42486 -3.15376,5.13937 -0.8412,1.28916 -1.48253,2.69584 -2.29431,4.0007 -0.75863,0.78596 -1.11322,1.86847 -1.64035,2.80271 -0.32518,0.67227 -0.43208,0.83851 -0.89002,1.46963 -0.34397,0.79177 -0.95161,1.3552 -1.40338,2.07073 -1.305376,2.06744 -0.36565,0.73613 -0.858748,1.42865 -0.894075,1.12203 -1.597962,2.38064 -2.434135,3.54218 -0.09436,0.14027 -0.66574,1.00141 -0.846588,1.23686 -0.03391,0.0442 0.04779,-0.10154 0.08186,-0.14556 0.08171,-0.10556 0.149246,-0.23287 0.263938,-0.30117 1.034327,-0.61595 2.066401,-2.23391 3.164466,-1.74047 3.368747,1.51383 5.716897,4.67736 8.575347,7.01604 -0.39398,2.40424 -0.39018,1.91949 -0.0688,0.98358 0.009,-0.0261 0.002,0.10619 0.0139,0.0815 0.58272,-1.16928 0.1546,-0.44706 0.47733,-0.97827 0.52308,-0.90123 0.97847,-1.83864 1.46039,-2.76183 0.47257,-0.90524 0.22353,-0.57476 0.56484,-0.99376 1.07534,-1.64622 2.03672,-3.35807 3.03213,-5.05256 1.14273,-1.94662 2.33148,-3.86461 3.4973,-5.79732 1.31024,-2.27157 2.51369,-4.59999 3.77936,-6.89619 0.88315,-1.64179 1.79751,-3.28161 2.47673,-5.02254 0.2967,-0.76047 0.9349,-2.67005 1.22972,-3.54134 0.92264,-2.91288 1.52435,-5.91146 2.29028,-8.86772 0.41335,-1.63594 0.89778,-3.25866 1.60223,-4.79505 0.11653,-0.23899 0.23758,-0.47583 0.34959,-0.71697 0.17124,-0.36865 0.3226,-0.7465 0.50006,-1.1122 0.1992,-0.41052 0.25554,-0.40147 0.48788,-0.77597 0.21488,-0.34636 0.7914,-1.33644 1.0139,-1.71674 0.97914,-1.66935 2.00068,-3.31276 3.0202,-4.95758 1.16286,-1.72846 2.14247,-3.56441 3.41366,-5.21902 0.88766,-1.21121 1.68619,-2.52411 2.78105,-3.56777 0.3765,-0.48908 0.83185,-0.84937 1.25631,-1.28762 0.30584,-0.31578 0.71471,-0.87267 1.1201,-1.12361 1.09924,-1.05642 2.254,-2.05009 3.42828,-3.02134 0.94514,-0.9461 2.0334,-1.72554 3.03789,-2.60362 0.40778,-0.35646 1.32859,-1.20918 1.75865,-1.605485 1.7558,-1.68447 3.41577,-3.464562 5.14394,-5.176268 1.52451,-1.292246 2.95309,-2.702235 4.52719,-3.935484 -0.1362,0.343122 -0.66533,0.283043 -0.82061,0.5798 -0.0643,0.122975 0.27098,-0.06037 0.40731,-0.08642 0.26358,-0.05037 0.52834,-0.09435 0.79228,-0.142804 1.32157,-0.242631 1.25179,-0.232518 2.61581,-0.495869 2.80455,-0.439607 5.48432,-1.358754 8.17402,-2.228662 1.95767,-0.639998 3.88371,-1.359119 5.76475,-2.197679 2.38537,-0.960488 4.52512,-2.385886 6.69351,-3.743396 1.8517,-1.125728 3.54072,-2.47364 5.25686,-3.788286 1.00337,-0.846386 2.10816,-1.594432 3.05393,-2.509642 0.31783,-0.307567 0.61671,-0.63414 0.92507,-0.951209 0.23825,-0.103467 1.11135,-1.066688 1.19512,-1.154276 0.76815,-0.803164 1.4575,-1.664295 2.14688,-2.534817 1.25357,-1.724022 2.51075,-3.488666 3.37465,-5.449755 0.2101,-0.476935 0.38489,-0.968658 0.57733,-1.452988 0.49008,-1.463609 0.76915,-2.983217 1.37979,-4.403122 0.36387,-1.019953 0.67653,-1.392383 1.18864,-2.240878 0.0634,-0.103188 0.12679,-0.206372 0.19018,-0.309557 0.112,-0.196504 0.21937,-0.395716 0.33599,-0.589508 0.002,-0.0026 0.11696,-0.07492 0.12706,-0.08589 0.1224,-0.132919 0.23446,-0.274998 0.35169,-0.412496 -0.0143,0.02082 -0.0576,0.08304 -0.043,0.06242 3.74461,-5.284642 2.5643,-2.461844 -9.91098,-9.950981 -0.39603,-0.237747 -0.61497,0.68953 -0.9311,1.026321 -0.0244,0.02601 0.0798,-0.117073 0.0543,-0.09218 -0.15056,0.146765 -0.28773,0.306665 -0.43159,0.459999 -1.09815,1.080001 -2.06083,2.293274 -2.9829,3.524364 -0.80021,1.086578 -1.42676,2.290609 -2.22129,3.379695 -0.53235,0.70399 -0.89798,1.510676 -1.34942,2.263286 -0.0171,0.02844 0.0445,-0.123008 0.0248,-0.09633 -0.53904,0.730129 -0.18768,0.40716 -0.45482,0.643954 -0.48366,0.461486 -1.00933,1.116229 -1.43407,1.498589 1.13462,-0.945972 -0.79988,0.309584 -1.10916,0.354137 2.59294,-1.112057 5.42967,0.148564 7.1424,2.24331 1.23583,1.511479 1.1457,2.399501 1.24579,3.970091 0.1098,0.370697 -0.23152,0.681413 -0.2462,1.015373 -0.004,0.0982 0.12056,-0.155287 0.18243,-0.231667 0.0703,-0.08679 0.14269,-0.171854 0.21404,-0.257781 0.26213,-0.289843 1.41361,-1.234196 0.47106,-0.454863 0.83641,-0.419325 1.6574,-0.98533 2.44361,-1.5268 0.51167,-0.291351 0.95346,-0.684601 1.41949,-1.039106 0.0246,-0.01868 -0.0824,0.0885 -0.0548,0.07463 0.11254,-0.05663 0.21724,-0.127656 0.32586,-0.191481 8.53047,-5.023051 1.4268,-17.086961 -7.10367,-12.06391 v 0 c -0.88828,0.52384 -1.71933,1.129657 -2.54098,1.698955 -0.63478,0.439008 -1.32661,0.883055 -2.07114,1.278348 -1.44045,0.986576 -2.68178,2.143744 -3.81619,3.471812 -1.64396,2.079863 -2.89241,4.175744 -3.15817,6.876039 0.003,2.157177 -0.24081,3.416848 1.26925,5.479206 1.62007,2.212608 3.46228,3.059975 6.03567,3.264255 0.76983,0.06111 1.5431,-0.114665 2.30296,-0.252479 0.41705,-0.07564 0.80791,-0.256667 1.21187,-0.385 1.89549,-0.807218 3.75885,-1.740369 5.35655,-3.058668 1.06422,-1.024546 2.06767,-2.118911 3.02361,-3.244522 0.7712,-1.041599 1.50215,-2.110642 2.108,-3.257492 0.7361,-1.056984 1.40434,-2.155322 2.11385,-3.229546 0.16404,-0.323147 0.004,-0.02318 0.53715,-0.682062 0.42355,-0.522978 0.82771,-1.057717 1.33953,-1.50151 0.22674,-0.2437 0.96626,-1.037839 1.00079,-1.081418 0.13123,-0.165614 -0.28377,0.566565 -0.45442,0.44196 -3.70261,-2.703568 -7.5516,-5.300949 -10.72783,-8.607023 -0.41541,-0.432395 0.75186,-0.9379 1.0687,-1.446967 0.13224,-0.212479 -0.34045,0.366932 -0.51068,0.550397 -0.87717,1.032759 -1.71544,2.089304 -2.35954,3.28657 -0.76978,1.315974 -1.58743,2.605571 -2.10106,4.053062 -0.64677,1.580938 -1.19213,3.196796 -1.56283,4.866589 -0.27931,1.181484 -1.21263,2.134391 -1.83155,3.140147 -0.81352,1.036076 -1.66064,2.026798 -2.66242,2.891202 0.22574,-0.135141 0.18387,-0.119893 -0.20596,0.218393 -0.64361,0.558517 -1.3194,1.080119 -1.98759,1.607928 -1.36254,1.047816 -2.68736,2.140104 -4.16452,3.02935 -1.62316,1.01764 -3.20028,2.129374 -4.99436,2.835267 -1.41627,0.642876 -2.87844,1.162425 -4.35366,1.65372 -2.14265,0.697645 -4.26593,1.46708 -6.50691,1.798761 -3.14583,0.60819 -6.42325,0.972958 -9.07353,2.94989 -1.95468,1.574922 -3.80236,3.2785 -5.66962,4.954588 -1.59385,1.592416 -3.14979,3.222164 -4.75496,4.803685 -1.38287,1.274643 -2.83561,2.46218 -4.23372,3.717522 -1.27156,1.052524 -2.52977,2.124263 -3.7196,3.269168 -1.1178,1.014294 -2.16442,2.100781 -3.20281,3.195545 -1.44595,1.521189 -2.76667,3.157399 -3.92771,4.907799 -1.495,2.01137 -2.77317,4.15028 -4.12388,6.25756 -1.08241,1.74641 -2.16567,3.49223 -3.20515,5.2647 -0.49924,0.85377 -1.04224,1.69321 -1.52682,2.55364 -0.73279,1.30116 -0.51242,0.98514 -1.00511,2.04762 -0.1785,0.38494 -0.36563,0.76581 -0.54845,1.14872 -0.9678,2.24148 -1.7648,4.54947 -2.34125,6.92419 -0.22183,0.85621 -0.45326,1.70998 -0.66554,2.56861 -0.43906,1.77585 -0.74298,3.58732 -1.33362,5.32313 -0.17004,0.50255 -0.34482,1.00352 -0.51012,1.50766 -0.0969,0.29565 -0.16626,0.60058 -0.27654,0.89152 -0.51557,1.36028 -1.24181,2.62835 -1.92623,3.90656 -1.1721,2.13602 -2.30173,4.2937 -3.50174,6.41421 -1.19323,1.98121 -2.41127,3.94682 -3.5828,5.94109 -0.43567,0.7436 -0.83046,1.52428 -1.2774,2.25917 -0.49068,0.8068 -1.043498,1.57726 -1.513564,2.39745 -0.252151,0.41594 -0.514509,0.82586 -0.756449,1.24783 -0.645504,1.12583 -1.137352,2.33684 -1.812658,3.44707 -0.943258,1.84069 -1.813076,3.68031 -2.027497,5.77518 2.853822,2.43413 5.157134,5.72765 8.561458,7.3024 1.74159,0.80561 4.82386,-3.38087 5.69077,-4.71667 0.93045,-1.36403 1.81824,-2.75508 2.79421,-4.08872 0.18879,-0.31009 0.37758,-0.62017 0.56637,-0.93026 -0.0387,0.0391 -0.13974,0.16695 -0.11596,0.11736 0.20477,-0.42698 0.56419,-0.76087 0.83476,-1.1495 0.57674,-0.82841 0.555,-0.53027 0.57229,-0.92644 0.69992,-1.01101 1.37124,-2.04108 1.90198,-3.15293 0.0968,-0.19371 0.19555,-0.38645 0.29034,-0.58115 0.0443,-0.091 0.13973,-0.17549 0.12693,-0.27592 -0.0105,-0.0825 -0.0865,0.14228 -0.13538,0.2096 -0.0279,0.0384 -0.1209,0.14628 -0.0943,0.10689 0.3079,-0.45635 0.6794,-0.86839 0.94655,-1.35334 0.78253,-1.30416 1.46222,-2.66412 2.26688,-3.95567 1.01371,-1.65648 1.99798,-3.33065 3.04582,-4.96585 0.96447,-1.52676 1.91756,-3.06011 2.83546,-4.6156 0.74001,-1.20611 1.55899,-2.35862 2.30665,-3.55937 0.81753,-1.23641 0.94145,-1.59177 1.53451,-2.40327 0.82832,-1.16008 1.5514,-2.38571 2.3062,-3.59423 0.29934,-0.59007 0.73153,-1.12163 1.08466,-1.67783 1.84049,-2.89885 0.0309,-0.0408 0.84146,-1.45394 0.12869,-0.22438 0.27095,-0.44069 0.40643,-0.66104 1.31437,-2.00218 2.63565,-4.00003 3.91024,-6.02788 0.96755,-1.60767 2.01022,-3.17316 2.88113,-4.83695 0.33165,-0.54695 0.65621,-1.10429 1.01151,-1.63631 0.12114,-0.18141 0.74296,-1.05203 0.8868,-1.31805 0.0349,-0.0645 -0.0986,0.1084 -0.14794,0.16261 0.95803,-1.23407 1.76068,-2.55861 2.58044,-3.88496 0.79688,-1.31561 1.51093,-2.67378 2.19236,-4.05294 0.89084,-1.43842 1.67795,-2.93348 2.64163,-4.32535 0.77743,-1.28653 1.46271,-2.61853 2.15902,-3.94981 1.00688,-1.5946 1.9792,-3.21676 2.68071,-4.974775 0.61424,-1.463312 1.36731,-2.866403 2.16575,-4.236516 1.04752,-1.763096 2.11813,-3.520887 3.41536,-5.115142 0.20473,-0.251785 0.37163,-0.535773 0.59824,-0.768059 0.86509,-0.886706 1.86057,-1.648018 2.81939,-2.426919 1.78626,-1.269746 3.56192,-2.554476 5.39848,-3.751591 1.47668,-0.939551 3.06272,-1.691778 4.6429,-2.438802 2.14676,-0.932132 4.30133,-1.846609 6.35069,-2.983958 1.25075,-0.587245 2.49505,-1.187582 3.71934,-1.828702 2.11382,-1.29626 4.00449,-2.891591 5.9171,-4.463954 0.42531,-0.377556 0.87124,-0.733089 1.27593,-1.132666 0.42281,-0.417465 0.82567,-0.856356 1.20322,-1.315164 0.50451,-0.613106 2.77766,-3.979275 2.24094,-4.456298 -3.31574,-2.94694 -7.63917,-4.511926 -11.45876,-6.767888 0.21383,-0.152392 0.41968,-0.316664 0.6415,-0.457179 0.12602,-0.07983 0.26619,-0.134752 0.39929,-0.202128 -0.0276,0.01585 -0.0485,0.0429 -0.078,0.05494 -1.3048,0.53395 -0.25541,0.07034 -1.46171,0.619156 -1.48217,0.731981 -2.92198,1.549427 -4.25737,2.528488 -1.7189,1.161667 1.74197,-1.167767 -1.61368,1.023835 -1.59495,1.041672 -3.08254,2.237856 -4.5216,3.483178 -1.89159,1.61811 -3.77835,3.245379 -5.79943,4.702477 -2.66902,1.862195 -5.39279,3.640018 -8.13887,5.386435 -0.4897,0.32566 -0.97012,0.66593 -1.4709,0.974288 -0.18001,0.11084 -0.36354,0.216226 -0.55063,0.314632 -0.19033,0.100108 -0.79599,0.28257 -0.58095,0.280548 0.59565,-0.0056 1.31368,-0.682643 1.76308,-0.291652 2.67163,2.32438 4.69548,5.302239 7.04322,7.953359 -0.11432,0.418279 -0.20976,0.842184 -0.34297,1.254836 -0.0306,0.09466 -0.18927,0.349795 -0.14611,0.260181 0.82486,-1.712865 1.73638,-3.387876 2.34311,-5.198679 0.2296,-0.866325 0.54161,-1.71491 0.68881,-2.598973 0.53165,-3.193047 -0.23334,-6.923013 -2.73977,-9.165772 -0.85635,-0.766271 -2.00089,-1.130718 -3.00133,-1.696075 -0.10171,-0.02784 -0.39769,-0.134022 -0.30513,-0.08352 1.42358,0.776758 2.24594,0.672142 3.21954,2.608387 0.87574,1.741635 1.44172,4.029548 0.49215,5.863703 0.55598,-1.230939 1.5153,-2.361948 2.19972,-3.547808 1.53146,-2.380287 3.33217,-4.555768 5.28617,-6.603497 2.52285,-2.447409 5.10889,-4.854689 7.89012,-7.006231 0.19546,-0.145221 0.39724,-0.282318 0.58639,-0.435668 0.0491,-0.03983 0.18923,-0.143393 0.126,-0.141867 -0.66437,0.01603 -1.3787,0.45901 -1.98493,0.186746 -3.58789,-1.611331 -7.00255,-3.105669 -6.17006,-7.523689 -0.10558,0.747879 -0.40311,1.449824 -0.5973,2.177306 0.19396,-0.113352 -0.14326,0.427168 -0.24134,0.629283 -0.40157,0.827492 -0.38127,0.731417 -0.80996,1.693815 -0.0668,0.149881 -0.12165,0.304784 -0.18247,0.457176 0.18849,-0.189937 0.13233,-0.149741 -0.1123,0.264073 -0.33866,0.572867 -0.13792,0.190351 -0.72433,1.096488 -0.0221,0.03422 0.17341,0.2011 0.10998,-0.05343 -0.1066,0.140047 -0.27892,0.229198 -0.36203,0.384342 -0.0471,0.08783 0.15249,-0.128839 0.23478,-0.185026 0.0362,-0.02471 -0.0611,0.06336 -0.0958,0.09012 -1.75216,1.350462 0.23444,-0.20977 -0.79061,0.597522 -1.35032,0.942747 -2.69784,1.890164 -4.08663,2.77537 -2.01609,1.25535 -4.00178,2.564366 -5.84021,4.073025 -0.35828,0.285779 -0.73155,0.553717 -1.07485,0.857332 -1.23864,1.095476 -2.28066,2.370437 -3.35494,3.621471 -1.54004,1.990132 -3.14137,3.934169 -4.81935,5.810144 -0.62958,0.695495 -1.24404,1.399792 -1.92023,2.051431 -1.27508,1.228778 -2.64098,2.361234 -4.02243,3.46682 -2.41047,1.842383 -4.89777,3.592237 -7.1693,5.609674 -1.83852,1.614935 -3.7134,3.188685 -5.35644,5.009809 -1.64948,1.750245 -3.21709,3.571819 -4.68496,5.477878 -1.27835,1.768165 -2.53736,3.550999 -3.9162,5.24353 -1.38806,1.91186 -2.7298,3.85469 -4.1067,5.77439 -1.40719,1.78215 -2.68465,3.64746 -3.90683,5.56026 -1.16495,1.66852 -2.26468,3.37898 -3.40589,5.06261 -0.44843,0.69802 -0.85338,1.43281 -1.31487,2.12209 -0.63132,0.94293 -1.30207,1.8601 -1.87543,2.84151 -0.86942,1.47229 -1.78335,2.91462 -2.70003,4.35764 -1.09162,1.74856 -2.18956,3.49426 -3.44835,5.13012 -1.122938,1.64118 -2.342188,3.20126 -3.699091,4.65728 -1.207465,1.32249 -2.32221,2.73967 -3.658428,3.93602 -1.442394,1.35103 -3.074863,2.49373 -4.447291,3.92355 -1.678564,1.65409 -3.464973,3.19177 -5.164428,4.82429 -1.711632,1.68759 -3.271335,3.50965 -4.804201,5.36005 -3.197881,3.57679 2.229924,0.54193 10.524976,7.34992 0.407694,0.33461 -0.31728,1.00612 -0.488087,1.50512 -0.0052,0.0152 -0.04449,0.0448 -0.03748,0.0303 0.06324,-0.13057 0.138661,-0.25488 0.207992,-0.38232 0.715513,-1.22092 1.285724,-2.50582 1.994157,-3.72917 0.680296,-1.26839 1.395015,-2.51117 2.091748,-3.77042 0.973333,-1.75959 1.984219,-3.52554 2.681404,-5.41416 0.147084,-0.50479 0.443161,-0.95777 0.683037,-1.43809 0.996752,-1.57672 2.014025,-3.14065 2.930769,-4.76618 0.186513,-0.33637 0.345743,-0.68837 0.549123,-1.01483 0.49561,-0.79556 1.09917,-1.52327 1.56016,-2.34148 1.08453,-1.57975 2.1279,-3.18916 3.13131,-4.82141 0.85521,-1.37488 1.73893,-2.72994 2.65656,-4.06388 1.23794,-1.88513 2.55925,-3.71541 3.71484,-5.65438 0.26225,-0.41849 0.53323,-0.83163 0.78676,-1.25546 0.58616,-0.97993 1.03937,-2.03761 1.7354,-2.9521 0.5144,-1.04221 1.20015,-2.00105 1.80013,-2.9938 0.87672,-1.35854 1.76505,-2.7081 2.60961,-4.08725 0.81727,-1.23012 1.59342,-2.48435 2.28283,-3.79143 -0.0203,0.0217 -0.0311,0.065 -0.0608,0.0649 -0.10244,-2.3e-4 0.0976,-0.18106 0.15945,-0.26273 0.23034,-0.30416 0.53951,-0.56183 0.7306,-0.88721 1.0082,-0.98478 2.00931,-1.9728 3.17384,-2.77989 2.117,-1.67296 4.26612,-3.30565 6.43147,-4.91538 1.80037,-1.35738 3.62902,-2.678936 5.39105,-4.083937 1.56163,-1.225684 3.20337,-2.347526 4.74372,-3.601328 1.32051,-1.092991 2.59932,-2.232237 3.85005,-3.404375 1.54493,-1.305039 3.17023,-2.516973 4.59814,-3.958833 2.56174,-2.463761 5.03666,-5.02035 7.33028,-7.738102 2.70784,-3.30194 5.34619,-6.665281 7.89705,-10.089682 2.12649,-2.834129 4.23021,-5.687597 6.49156,-8.416671 3.70277,-5.228349 2.39193,-2.21406 -8.9491,-10.853909 -0.32368,-0.246592 -0.65197,0.487759 -0.96405,0.74889 -1.01287,0.847524 -1.88575,1.854612 -2.91386,2.685682 -1.33151,1.207484 -2.68158,2.387526 -4.07099,3.528467 -0.38352,0.314939 -0.77534,0.61966 -1.16031,0.932826 -0.1452,0.118118 -0.61426,0.394742 -0.43015,0.360966 0.5325,-0.0977 1.01598,-0.374431 1.52397,-0.561645 2.6571,1.390211 5.93725,1.967098 7.97128,4.170633 1.53069,1.658252 0.5698,3.70419 -0.16779,5.247494 -0.0359,0.07513 0.0628,-0.15466 0.1026,-0.227788 0.17978,-0.329983 0.7207,-1.221848 0.8724,-1.474695 0.84036,-1.454147 1.8054,-2.825242 2.72714,-4.227917 0.82789,-1.185291 1.77311,-2.281539 2.65104,-3.429627 1.37711,-1.675373 3.23621,-2.858997 4.89437,-4.233741 0.19088,-0.156876 0.39379,-0.300169 0.57264,-0.470635 0.0222,-0.02111 0.0463,-0.09468 0.016,-0.09042 -0.66775,0.09378 -1.41139,0.715081 -1.98924,0.367548 -4.47372,-2.690598 -9.00247,-4.655476 -6.33402,-9.809578 -0.16348,0.327909 -0.007,0.0213 -0.3362,0.597691 -0.0371,0.06483 -0.18152,0.204693 -0.10726,0.196702 0.0894,-0.0096 0.0873,-0.217575 0.17616,-0.204118 0.29731,0.04503 -1.54401,0.967126 -0.57165,0.697841 0.0936,-0.01852 -0.10435,0.162071 -0.17428,0.226931 -0.36967,0.342881 -0.22932,0.174672 -0.97433,0.694909 -0.18438,0.128752 -0.36358,0.264764 -0.54537,0.397145 -1.29165,0.91725 -2.50398,1.935247 -3.82681,2.808108 -0.96324,0.705876 -1.9589,1.366946 -2.89212,2.114486 -0.11783,0.09963 -0.2432,0.19099 -0.35349,0.298908 -0.0203,0.01984 0.10207,-0.04771 0.0794,-0.0307 -0.71105,0.532733 -1.44698,1.033187 -2.13014,1.603446 -0.2756,0.215022 -0.53872,0.445765 -0.81493,0.660006 -0.86635,0.671978 -1.84323,1.193594 -2.71871,1.854126 -1.59333,1.014775 -3.13601,2.096169 -4.56595,3.334951 -2.0125,1.666878 -3.98937,3.377594 -6.04946,4.987044 -2.71273,2.218102 -5.62739,4.215984 -8.01431,6.806112 -2.4332,2.837246 -4.74903,5.776487 -6.9886,8.768437 -1.45933,1.994371 -2.8766,4.03319 -4.40202,5.977906 -2.02427,2.580706 -4.22349,5.020604 -6.43827,7.436946 -2.23577,2.352256 -3.25256,3.462358 -5.60142,5.763286 -4.61228,4.518164 -9.48617,8.753894 -14.45472,12.873734 -1.116216,0.91378 -2.215594,1.84853 -3.348648,2.74134 -1.904053,1.50034 -4.109072,3.09437 -6.103377,4.4881 -0.855422,0.59782 -1.719038,1.18393 -2.586196,1.76459 -0.706136,0.47284 -1.444702,0.89797 -2.133463,1.39577 -0.09717,0.0702 -0.137226,0.19666 -0.205837,0.29498 3.018834,2.4401 6.599176,4.31547 9.056504,7.32029 0.16904,0.2067 -1.574993,3.95879 -0.632036,2.20317 0.226504,-0.42171 0.461975,-0.83934 0.664514,-1.27308 0.246205,-0.52725 0.330216,-0.80708 0.482645,-1.2761 -0.01937,0.0327 -0.319741,0.54388 -0.265623,0.4188 0.176236,-0.40735 0.477104,-0.74906 0.695404,-1.1355 0.160332,-0.28383 0.30742,-0.57503 0.453814,-0.86629 0.0045,-0.009 -0.01738,0.0102 -0.02606,0.0152 0.08312,-0.20122 0.02402,-0.0698 0.246952,-0.4282 0.461499,-0.74205 0.932809,-1.48638 1.341172,-2.2582 0.965928,-1.57143 1.980243,-3.11942 3.132106,-4.56247 2.142834,-2.73256 4.241612,-5.52249 6.821329,-7.86839 1.44707,-1.43263 2.88089,-2.87994 4.63794,-3.9396 1.35222,-1.0335 2.77441,-1.97331 4.09609,-3.0478 1.87035,-1.54602 3.55732,-3.26941 5.18845,-5.06424 1.2399,-1.354197 2.50067,-2.689364 3.73997,-4.044205 0.75319,-0.856174 1.53742,-1.685478 2.26043,-2.56803 1.38021,-1.426488 2.79564,-2.827774 3.98322,-4.425321 0.36092,-0.465529 0.73575,-0.920604 1.08277,-1.396587 1.60647,-2.203482 2.9042,-4.623411 4.34887,-6.930697 1.93378,-3.226855 3.83253,-6.474465 5.78527,-9.690007 0.77861,-1.291643 1.5257,-2.607019 2.32422,-3.886388 0.63885,-1.02354 0.94866,-1.426202 1.69212,-2.464014 0.38459,-0.536863 0.77127,-1.072232 1.1569,-1.608347 3.08116,-4.269266 6.3444,-8.406256 9.91875,-12.276888 0.95755,-0.988137 1.76815,-1.85438 2.76778,-2.783216 0.88768,-0.824815 1.10189,-0.959149 1.99352,-1.673979 0.11643,-0.09334 0.49366,-0.308329 0.34652,-0.283461 -0.82938,0.140187 -1.62771,0.42505 -2.44157,0.637574 -2.40566,-2.777527 -5.20552,-5.257543 -7.21699,-8.332586 -0.33003,-0.504534 0.51174,-1.09868 0.66663,-1.681329 0.0763,-0.287026 -0.28742,0.519842 -0.42748,0.78174 -0.41648,0.778777 -0.79731,1.576919 -1.25468,2.333419 -1.16011,1.936194 -2.22999,3.922916 -3.45102,5.822667 -1.09941,1.801836 -2.12457,3.649694 -3.29817,5.405585 -1.21431,1.876259 -2.41433,3.76242 -3.59106,5.662216 -2.01962,3.430021 -3.94156,6.917375 -5.94024,10.360136 -2.85187,4.881287 -5.94349,9.621157 -8.66237,14.581425 -2.78191,4.951069 -5.66136,9.857827 -9.09011,14.397445 -2.79401,3.500928 -5.68669,6.935788 -9.17767,9.773718 -2.32465,1.8044 -4.704014,3.53562 -7.015298,5.35756 -2.041064,1.68858 -4.286771,3.1256 -6.263338,4.89791 -2.624455,2.29554 -5.246031,4.59463 -7.853709,6.90833 -2.909414,2.6422 -5.831369,5.28022 -8.487545,8.18197 -3.288657,3.52605 -6.548453,7.08729 -9.565783,10.85065 -0.289179,0.35985 -0.715293,0.64373 -0.867537,1.07954 -0.08829,0.25276 0.400984,-0.55581 0.653534,-0.46692 3.650745,1.28488 7.488796,2.33285 10.716411,4.46859 0.724347,0.4793 -0.0019,1.73733 -0.02561,2.60558 -0.0013,0.0465 -0.06072,0.1758 -0.04933,0.13066 0.04284,-0.16984 0.09591,-0.33694 0.143859,-0.5054 0.479018,-1.79119 1.284836,-3.4857 1.946297,-5.21169 1.605256,-3.5304 3.174388,-7.09082 5.153538,-10.43243 2.370386,-4.12718 4.73566,-8.2566 7.06891,-12.40489 2.286225,-4.02228 4.695825,-7.97432 7.052728,-11.95537 1.897835,-3.18638 3.995232,-6.24952 5.898943,-9.43313 1.79614,-2.841878 3.65349,-5.648623 5.27585,-8.595827 1.83798,-3.012819 3.63149,-6.051672 5.56873,-9.002615 2.00122,-3.026299 4.08581,-5.990947 6.24251,-8.908274 1.53241,-2.078014 3.31574,-3.9526 4.87987,-6.007503 1.70836,-1.961276 3.31739,-4.009802 4.84845,-6.112293 2.12953,-2.814629 4.18431,-5.685194 6.4444,-8.399353 1.90138,-2.294152 3.88528,-4.518025 6.02649,-6.592372 0.30468,-0.307864 0.61162,-0.613505 0.91403,-0.923592 0.15595,-0.159916 0.30512,-0.326368 0.46101,-0.486349 0.0857,-0.08791 0.38341,-0.283612 0.26353,-0.257209 -3.79943,0.836821 1.42339,7.930668 -9.26231,-2.776683 -1.33675,-1.339458 -0.27339,-3.774847 -0.41008,-5.662269 0.0454,-0.08734 0.0681,-0.190968 0.13626,-0.262022 0.0492,-0.05125 -0.0442,0.135501 -0.0759,0.199062 -0.072,0.144497 -0.14988,0.286261 -0.2344,0.423799 -0.45631,0.742492 -0.95599,1.459601 -1.36323,2.232028 -0.96707,1.548093 -1.7777,3.181747 -2.76273,4.719846 -1.75496,2.73032 -3.37217,5.549019 -5.23106,8.212783 -2.62938,4.027152 -5.25124,8.075925 -8.21737,11.865459 -1.58678,1.947783 -3.1753,3.890246 -4.90253,5.717268 -1.17446,1.24233 -2.27541,2.290971 -3.5087,3.477588 -0.62301,0.599437 -1.24916,1.195607 -1.87375,1.793412 -3.25092,3.2059 -6.447589,6.466961 -9.584486,9.784672 -3.267978,3.636603 -6.20861,7.412614 -8.943158,11.469489 -0.679556,1.008166 -1.345036,2.025751 -2.017551,3.038626 -4.764016,7.164679 -9.52841,14.329099 -14.288185,21.496579 -3.841102,5.64603 -7.63788,11.32386 -11.248519,17.12098 -0.344046,0.55789 -0.700403,1.10837 -1.032143,1.67366 -0.316648,0.53957 -1.287711,1.13946 -0.912532,1.6401 2.684577,3.58233 5.526456,7.31854 9.35931,9.63138 1.058429,0.63869 3.333539,-3.40148 3.888454,-4.36978 0.50509,-0.89616 1.028237,-1.78231 1.517896,-2.68699 0.778836,-1.43896 1.448113,-2.93592 2.235425,-4.37082 1.224092,-2.40754 2.46461,-4.80877 3.573611,-7.2724 1.052049,-2.66738 2.130107,-5.32753 3.54757,-7.8276 2.054887,-3.87205 4.025633,-7.78984 5.987431,-11.70951 1.883278,-4.09244 3.599992,-8.25825 5.466239,-12.3587 1.418143,-3.14401 2.842056,-6.284783 4.065185,-9.510972 1.527651,-3.482877 3.096781,-6.948151 4.527183,-10.472817 1.78448,-4.120319 3.46707,-8.299373 5.72455,-12.191897 1.7816,-3.377509 3.593,-6.740019 5.54754,-10.02171 1.49457,-2.520524 3.02932,-5.024792 4.70004,-7.432548 1.94373,-2.709992 3.85614,-5.454075 6.14157,-7.894552 0.20939,-0.239763 0.46012,-0.448935 0.62817,-0.719286 0.0471,-0.07581 -0.15712,0.107707 -0.24634,0.105021 -2.52429,-0.076 -5.64553,1.296585 -7.56864,-0.340312 -8.10568,-6.899323 -3.06671,-5.85651 -1.85376,-9.018453 0.0891,-0.232172 -0.27112,0.416933 -0.40668,0.625401 -0.40903,0.615257 -0.98752,1.477166 -1.35561,2.074426 -0.6065,0.984131 -1.10367,2.039461 -1.842,2.939008 -1.73703,2.449213 -3.43136,4.926729 -5.15231,7.387473 -0.47286,0.693373 -0.9255,1.401165 -1.42241,2.077511 -1.11591,1.518872 -2.28065,3.001719 -3.33943,4.562777 -1.784671,2.524876 -3.608057,5.02167 -5.390539,7.547641 -1.514692,2.345116 -3.141123,4.618956 -4.540449,7.037726 -2.078249,3.56592 -4.218323,7.094509 -6.338654,10.635488 -3.054834,4.979353 -6.04448,9.998054 -9.228823,14.897185 -3.069312,4.959006 -6.293585,9.81615 -9.422016,14.73766 -3.546287,5.33924 -7.14902,10.63829 -10.835391,15.88219 -2.814905,4.06522 -5.638056,8.1255 -8.384392,12.23723 -0.245083,0.35636 -0.488997,0.71351 -0.735253,1.06905 -0.163708,0.23637 -0.739032,0.55519 -0.494633,0.70664 11.982854,7.42564 11.081202,10.59027 12.54439,4.33388 0.406027,-2.01921 0.876464,-4.02474 1.273159,-6.04583 0.345758,-1.38547 0.58301,-2.78484 0.778754,-4.19859 0.09417,-0.58314 0.155006,-1.18673 0.275807,-1.76614 0.119541,-0.57339 0.280508,-1.13753 0.403537,-1.71017 0.03492,-0.16254 0.05526,-0.32787 0.08289,-0.4918 0.297378,-1.53157 0.649065,-3.05762 1.152594,-4.53577 1.424035,-4.07908 2.849327,-8.1574 4.469481,-12.16442 1.911843,-4.56282 4.037756,-9.02044 6.342441,-13.398531 0.582782,-1.214641 1.136232,-2.443536 1.738466,-3.648652 1.439532,-2.880614 3.166764,-5.606071 4.728387,-8.419565 3.20007,-5.42312 6.411929,-10.839556 9.578637,-16.282101 2.179984,-3.907354 4.271105,-7.866602 6.649873,-11.658597 1.998948,-3.218432 3.96911,-6.454 5.939094,-9.689976 1.55657,-2.520786 3.0904,-5.058 4.62629,-7.590348 0.24931,-0.378844 0.51576,-0.746945 0.74794,-1.136528 0.20667,-0.346776 0.87249,-0.806048 0.56711,-1.070078 -8.480673,-7.332491 -9.067564,-11.71162 -12.703756,-6.143795 -0.886767,1.374167 -1.693934,2.798109 -2.63583,4.137859 -0.815488,1.38467 -1.680961,2.737056 -2.511263,4.112704 -1.281663,2.117135 -2.422835,4.300694 -3.502816,6.527128 -0.47347,0.973545 -0.881341,1.789546 -1.318499,2.789235 -0.840242,1.921462 -1.527664,3.910457 -2.486662,5.780714 -2.364214,4.998892 -5.002686,9.852843 -7.881993,14.575219 -3.20916,5.189273 -6.553248,10.292709 -10.096913,15.26097 -2.472557,3.512299 -5.00177,6.984233 -7.475146,10.496061 -3.301031,4.868011 -6.486292,9.810861 -9.462973,14.885861 -1.81278,3.12258 -3.615156,6.2511 -5.360538,9.41208 -0.944808,1.7111 -2.024229,3.66765 -2.8541,5.45684 -0.309832,0.66799 -0.570542,1.35769 -0.855813,2.03654 -0.194218,1.09861 -1.508808,2.67381 -0.582655,3.29583 10.722038,7.20098 10.585945,7.75597 13.761733,1.98178 0.247356,-0.44974 0.243774,-1.02954 0.498882,-1.4782 0.652196,-1.84406 1.138473,-3.74129 1.668942,-5.62313 0.246134,-1.199 0.551812,-2.38261 0.810733,-3.57882 0.373743,-1.72671 0.271955,-1.38675 0.585836,-3.04353 0.100827,-0.5322 0.209502,-1.06289 0.314253,-1.59434 0.717307,-3.57238 1.378209,-7.15592 1.865612,-10.76796 0.34917,-2.79425 0.682865,-5.59274 1.234649,-8.356046 0.696931,-3.14008 1.478687,-6.266199 2.614583,-9.281419 1.295048,-2.991028 2.777064,-5.888562 4.424979,-8.70217 2.327812,-3.946091 4.551227,-7.952475 6.851181,-11.914912 2.239786,-3.990105 4.338394,-8.054838 6.398194,-12.140457 1.527149,-2.969749 3.23514,-5.835173 4.828601,-8.76922 1.648381,-2.896708 3.30803,-5.790607 4.866074,-8.736195 0.417695,-0.916979 1.968534,-4.192077 1.684263,-4.883131 -1.147768,-2.790164 -2.170737,-6.318388 -4.896136,-7.61245 -4.22476,-2.005983 -6.173795,0.597568 -8.046209,2.760015 -0.885608,1.210287 -1.737336,2.444816 -2.633255,3.64767 -1.181962,1.536031 -2.491208,2.967498 -3.771196,4.421167 -1.79832,2.191181 -3.391961,4.529264 -4.999212,6.862439 -2.243415,3.064883 -4.367157,6.211433 -6.533618,9.331148 -1.980687,2.90344 -3.933262,5.8235 -5.831806,8.781661 -1.727991,2.872568 0.468982,-0.754499 -1.690743,2.711162 -1.214223,1.948433 -2.317586,3.965828 -3.611991,5.864465 -2.42022,3.691059 -4.817898,7.396946 -7.248948,11.080737 -1.236483,1.882894 -2.454524,3.779734 -3.709604,5.650264 -2.218674,3.306638 -0.501068,0.671804 -2.896021,4.186677 -0.478231,0.701863 -0.939524,1.415118 -1.409287,2.12268 -3.13655,4.734843 -6.307769,9.446205 -9.42495,14.193995 -2.848615,4.35077 -5.711714,8.70723 -8.937279,12.79134 2.092031,-0.53098 4.26697,-1.13087 6.472032,0.17196 1.774852,1.04865 2.375196,3.38614 3.315186,5.22086 0.151255,0.29523 -0.198262,1.31159 -0.135229,0.98592 0.208222,-1.07582 0.271593,-2.17687 0.533139,-3.24385 0.418294,-2.08799 0.496137,-2.61091 1.046134,-4.75386 1.088231,-4.24006 2.524598,-8.37931 3.866311,-12.5428 1.768803,-5.16426 3.548528,-10.342339 5.910635,-15.272656 1.009171,-2.221148 2.020485,-4.440227 3.140456,-6.608623 1.028084,-1.990492 1.509527,-2.798894 2.638515,-4.784023 0.503984,-0.886172 1.009671,-1.77137 1.514509,-2.657055 3.5701,-6.210868 7.175566,-12.401055 10.796619,-18.582332 2.76411,-4.788109 5.46372,-9.614289 8.360905,-14.324386 0.951384,-1.589249 1.884934,-3.189287 2.852595,-4.768678 1.625248,-2.652691 3.371035,-5.230585 4.949049,-7.912195 5.019252,-8.53272 -7.047827,-15.631002 -12.067068,-7.098288 z" />
      <path
         style="fill:#000080;stroke-width:0.264583"
         id="path1493"
         d="m 180.81,73.663944 c -0.39549,0.41238 -0.8141,0.803764 -1.18646,1.237139 -1.58201,1.841235 -2.93719,3.878344 -4.40253,5.810223 -1.55823,2.054357 -1.69234,2.180614 -3.34665,4.20596 -2.21171,2.681737 -4.7293,5.102788 -7.39911,7.324881 -0.88593,0.737356 -2.3722,1.854237 -3.29654,2.558269 -1.59698,1.272366 -3.36828,2.272612 -5.11381,3.315571 -1.88866,1.163677 -0.98643,0.619148 -2.70384,1.638313 -1.79132,1.08635 -3.65615,2.0432 -5.46564,3.09795 -0.63336,0.35266 -1.27032,0.69754 -1.91138,1.03578 -0.21507,0.11348 -0.87739,0.40973 -0.64322,0.34417 0.33004,-0.0924 0.59488,-0.46155 0.93578,-0.42608 2.13788,0.22241 4.22588,0.78859 6.33882,1.18289 2.81658,4.83954 2.29436,2.44774 2.45396,5.59861 0.001,0.022 0.004,0.0554 0.0257,0.0608 0.24255,0.0615 -0.0765,-0.12413 0.0943,-0.0159 4.70753,-8.70857 -7.60825,-15.366017 -12.31578,-6.65744 v 0 c -0.66977,1.32788 -1.4128,2.74059 -1.60262,4.24462 -0.10977,0.86982 -0.4084,1.78945 -0.14632,2.62608 0.54524,1.7406 1.66305,3.24686 2.49458,4.87029 2.23562,0.49719 4.42865,1.25716 6.70686,1.49155 0.57844,0.0595 1.09007,-0.40649 1.62505,-0.63437 0.18222,-0.0776 0.34862,-0.1881 0.52362,-0.28084 0.83973,-0.445 1.67703,-0.89338 2.50299,-1.3638 1.82576,-1.08107 3.73351,-2.02036 5.53727,-3.14024 3.113,-1.85342 6.26819,-3.65473 9.15442,-5.85669 1.38916,-1.06101 2.66622,-2.0145 4.01369,-3.1438 3.26675,-2.73785 6.32615,-5.735498 9.04138,-9.023496 2.57497,-3.162822 5.0348,-6.410066 7.45089,-9.694344 7.35823,-6.622415 -2.00727,-17.028533 -9.36551,-10.406118 z" />
      <path
         style="fill:#000080;stroke-width:0.264583"
         id="path1495"
         d="m 176.54317,86.134272 c -1.22383,1.216647 -3.28423,3.516916 -5.29482,2.13233 -2.95726,-2.0365 -4.32948,-5.737315 -6.27902,-8.752607 -0.12698,-0.1964 0.41106,-0.724268 0.18187,-0.677648 -0.32425,0.06596 -0.41278,0.517443 -0.62836,0.768472 -0.42316,0.492749 -0.85837,0.975018 -1.28755,1.462526 -3.89069,4.229762 -7.61745,8.602954 -11.2243,13.075772 -1.61876,1.855999 -2.93471,3.937775 -4.39397,5.912323 -0.12678,0.17154 -1.24109,1.54212 -1.35222,1.67921 -0.69588,0.82493 -1.32548,1.70155 -1.98468,2.55531 -6.04236,7.84155 5.04727,16.38674 11.08963,8.54519 v 0 c 0.58986,-0.76674 1.15339,-1.55291 1.77738,-2.29284 0.67595,-0.8363 1.297,-1.58982 1.94252,-2.46323 1.27015,-1.71856 2.39817,-3.54225 3.82005,-5.14858 3.5003,-4.34196 7.12361,-8.581042 10.89926,-12.687243 0.9598,-1.117013 2.44636,-2.742663 3.24771,-4.040778 0.46816,-0.758375 1.56433,-1.546844 1.23108,-2.373431 -1.40509,-3.485155 -3.03777,-7.250756 -6.02848,-9.525897 -1.97063,-1.49914 -4.89163,1.425726 -6.25217,2.612056 -6.51887,7.45013 4.01721,16.669192 10.53607,9.219065 z" />
      <path
         style="fill:#000080;stroke-width:0.264583"
         id="path1497"
         d="m 186.80277,67.739309 c -2.29207,2.959159 -4.73756,5.793455 -7.11515,8.682959 -2.4724,3.269517 -5.2391,6.290196 -8.01345,9.300728 -2.30606,2.428661 -4.51898,4.948883 -6.90329,7.301918 -2.25786,1.92945 -4.45163,3.954092 -6.80852,5.763286 -2.73831,2.06365 -5.3476,4.29679 -7.88631,6.59963 -1.99725,1.97469 -4.12911,3.80748 -6.11702,5.79129 -1.02584,1.02371 -1.9223,1.99079 -2.91318,3.0428 -2.56613,2.71154 -5.02715,5.52416 -7.39718,8.4084 -1.97252,2.32113 -3.68512,4.82938 -5.27594,7.4212 -1.51699,2.4704 -3.04254,4.93492 -4.54089,7.41696 -2.04067,3.30818 -4.12811,6.5862 -6.19042,9.88061 -1.09964,1.79378 -2.10838,3.63647 -3.22856,5.41741 -0.70217,1.03455 -1.3876,2.06295 -1.97411,3.17146 -4.43677,8.84958 8.07842,15.12412 12.51519,6.27454 v 0 c -0.0183,0.0192 -0.029,0.0523 -0.055,0.0575 -0.0159,0.003 -0.002,-0.0345 0.007,-0.0479 0.11437,-0.17208 0.24139,-0.33543 0.35997,-0.50465 0.21008,-0.2998 0.42309,-0.59767 0.626,-0.90237 0.13213,-0.1984 0.25256,-0.40435 0.37884,-0.60652 1.12095,-1.78921 2.15361,-3.62721 3.24063,-5.43668 2.09807,-3.35933 4.23095,-6.6964 6.30672,-10.06993 1.4805,-2.45428 2.98874,-4.89051 4.48938,-7.33226 1.25559,-2.05015 2.59501,-4.03855 4.16828,-5.8642 2.15996,-2.64318 4.42215,-5.20564 6.7645,-7.68831 0.75402,-0.80179 1.69718,-1.81632 2.47516,-2.59774 1.87543,-1.88374 3.90587,-3.6057 5.7888,-5.48245 2.26386,-2.07422 4.61808,-4.0577 7.06786,-5.90937 2.77295,-2.18419 5.43735,-4.51336 8.0644,-6.86967 2.51742,-2.51214 4.89954,-5.154285 7.33256,-7.747567 2.95219,-3.203593 5.89227,-6.42243 8.53091,-9.894969 2.63073,-3.20008 5.35677,-6.325381 7.83913,-9.644663 5.60834,-8.157599 -5.92824,-16.089 -11.53659,-7.931402 z" />
      <path
         style="fill:#000080;stroke-width:0.264583"
         id="path1499"
         d="m 130.48515,175.05887 c 2.43369,-3.98735 4.81645,-8.00103 7.37899,-11.90846 2.91727,-4.16578 6.0485,-8.17697 9.11288,-12.23505 2.96237,-3.87003 5.656,-7.93722 8.34707,-11.998 2.36007,-3.5416 4.67228,-7.11439 7.13658,-10.585 2.17901,-3.12329 4.37317,-6.23513 6.65876,-9.28183 0.31029,-0.36483 0.62,-0.73015 0.93085,-1.09448 0.90684,-1.06287 1.15895,-1.3924 2.09419,-2.34889 1.15391,-1.18013 2.39634,-2.24859 3.65027,-3.31933 2.63977,-2.19266 5.44651,-4.16794 8.10787,-6.33243 1.7233,-1.45081 3.462,-2.88924 5.07425,-4.46507 0.92806,-0.9071 1.82448,-1.866306 2.71864,-2.806608 2.29911,-2.543231 4.44922,-5.216573 6.38359,-8.046961 1.21262,-1.691325 2.21905,-3.513984 3.33911,-5.264748 1.16279,-1.975234 2.28205,-3.974311 3.39897,-5.97562 0.82397,-1.459357 1.63669,-2.928887 2.31923,-4.461184 1.00489,-2.256004 0.1109,-0.398801 0.82558,-1.859238 1.18895,-2.187832 2.35818,-4.386643 3.58632,-6.553089 0.90848,-1.657839 1.74387,-3.353059 2.62887,-5.023548 4.62521,-8.75257 -7.7528,-15.293599 -12.378,-6.541029 v 0 c -0.81869,1.552413 -1.59257,3.126213 -2.43344,4.666392 -1.39255,2.461808 -2.73372,4.952924 -4.05405,7.453773 -0.86489,1.853975 -1.63132,3.75561 -2.72102,5.49792 -0.98695,1.770174 -1.98069,3.535217 -2.99163,5.291825 -1.03493,1.63852 -1.98338,3.32885 -3.10644,4.910238 -1.48312,2.213261 -3.19037,4.262626 -4.94689,6.262579 -2.0438,2.153584 -4.15478,4.229132 -6.49389,6.067089 -2.73987,2.245006 -5.66729,4.250976 -8.36656,6.548759 -1.32376,1.13751 -2.01186,1.69983 -3.28556,2.91433 -1.97929,1.8873 -3.76441,3.95794 -5.48253,6.08235 -2.35706,3.14682 -4.62788,6.35514 -6.87622,9.58006 -2.54618,3.59412 -4.95047,7.28326 -7.38782,10.95144 -2.53124,3.82165 -5.0615,7.65226 -7.84874,11.29395 -3.25178,4.30671 -6.57992,8.56025 -9.65075,12.99913 -2.61383,3.99321 -5.06079,8.08461 -7.54045,12.16075 -5.24673,8.39475 6.62525,15.81474 11.87197,7.41998 z" />
      <path
         style="fill:#000080;stroke-width:0.264583"
         id="path1501"
         d="m 191.1782,68.060021 c -0.30945,0.309457 -0.6165,0.62134 -0.92837,0.928373 -1.29809,1.277983 -1.72807,1.637242 -3.0608,3.084306 -2.02891,2.202963 -3.84468,4.554879 -5.65119,6.939338 -4.18594,5.961423 -8.03444,12.152411 -11.77947,18.397561 -0.50604,0.81198 -1.01685,1.621002 -1.51812,2.435937 -0.50252,0.816984 -0.98533,1.646044 -1.49318,2.459724 -1.46389,2.34547 -3.02885,4.62803 -4.51071,6.96246 -1.70946,2.7926 -3.5411,5.50562 -5.36384,8.22457 -1.58163,2.57697 -3.38769,4.99758 -5.31414,7.324 -2.00018,2.31905 -4.24428,4.40669 -6.28645,6.68679 -2.00319,2.28976 -3.77801,4.76023 -5.65884,7.14766 -2.10824,2.84939 -3.90085,5.91838 -5.59027,9.02994 -0.86818,1.61388 -1.94907,3.0974 -2.87787,4.67709 -0.20644,0.43198 -0.40361,0.86851 -0.61932,1.29593 -0.14416,0.28565 -0.35497,0.53348 -0.50767,0.81465 -0.8342,1.53597 -1.60749,3.11066 -2.40846,4.66411 -1.21301,2.35731 -0.60774,1.20301 -1.81405,3.46381 -4.65682,8.73579 7.69745,15.32153 12.35427,6.58574 v 0 c 1.29837,-2.43771 0.66435,-1.22631 1.90309,-3.63365 0.55214,-1.07084 1.11392,-2.13678 1.65568,-3.21291 0.11519,-0.22882 0.20884,-0.46848 0.33177,-0.69324 0.96163,-1.75831 0.33215,-0.37436 1.27228,-2.28809 0.006,-0.013 -0.0288,0.002 -0.0432,0.004 0.94352,-1.72024 2.22967,-3.24161 3.07131,-5.02338 1.2949,-2.41447 2.68933,-4.78434 4.27157,-7.02224 1.71203,-2.175 3.32957,-4.42289 5.13632,-6.52243 2.11723,-2.4299 4.57399,-4.55125 6.60667,-7.0611 2.21485,-2.69001 4.31438,-5.4733 6.14669,-8.44156 1.88767,-2.81683 3.78404,-5.62805 5.55641,-8.51984 1.53018,-2.41391 3.14358,-4.77483 4.65745,-7.19895 0.47953,-0.76785 0.93433,-1.55089 1.40854,-2.32203 0.54232,-0.88191 1.094,-1.75802 1.64101,-2.63703 3.48785,-5.817353 7.07184,-11.582296 10.94115,-17.155445 1.45972,-1.936583 2.91645,-3.864843 4.55455,-5.657059 1.13641,-1.243325 1.6988,-1.737513 2.88832,-2.90876 0.31184,-0.307052 0.61891,-0.618914 0.92837,-0.928373 7,-6.999999 -2.89949,-16.899493 -9.8995,-9.899494 z" />
      <path
         style="fill:#000080;stroke-width:0.264583"
         id="path1503"
         d="m 178.9202,89.291095 c -1.62923,3.683135 -3.58052,7.206372 -5.50628,10.739085 -1.75644,3.16164 -3.68152,6.23075 -5.64436,9.26802 -0.8658,1.50007 -1.88583,2.90145 -2.82802,4.35211 -0.99631,1.53402 -1.93245,3.09909 -2.95905,4.61351 -1.95109,3.02462 -4.047,5.94748 -6.20513,8.82621 -2.63525,3.8354 -5.14632,7.75676 -7.66015,11.67295 -2.74203,3.98073 -5.54525,7.92556 -8.55052,11.71293 -2.17725,2.73571 -4.2074,5.57368 -6.07609,8.5274 -1.56964,2.86787 -3.27583,5.65936 -4.691,8.60836 -0.20109,0.49982 -0.42161,0.99226 -0.60326,1.49947 -0.45491,1.2702 -0.77887,2.58348 -0.99443,3.9143 -0.0512,0.31618 -0.0766,0.63622 -0.12899,0.95221 -0.0202,0.12161 0.0215,-0.24559 0.0323,-0.36839 -0.0331,-0.29703 0.25247,-0.52135 0.25978,-0.80239 0.003,-0.10455 -0.11163,0.17758 -0.17818,0.25826 -0.007,0.008 -0.003,-0.0379 -0.0101,-0.03 -0.1529,0.16888 -0.67519,0.85716 -0.76154,0.96933 -0.9357,1.14144 -1.51739,2.49958 -2.17093,3.80494 -0.0877,0.17518 -0.22257,0.3226 -0.32661,0.48859 -0.55789,0.97703 -0.30444,0.53173 -0.76097,1.33555 -4.88873,8.60816 7.28504,15.52187 12.17377,6.91371 v 0 c 0.39246,-0.69109 0.21518,-0.37401 0.53385,-0.95011 0.45413,-0.75205 0.87073,-1.50704 1.2506,-2.29877 0.081,-0.16892 0.18947,-0.32477 0.25975,-0.49844 0.0104,-0.0258 -0.0874,0.0632 -0.0738,0.0389 0.067,-0.11995 0.15964,-0.22366 0.23947,-0.33549 1.26284,-1.68002 2.52415,-3.15735 3.08673,-5.26632 0.11138,-0.49788 0.2325,-0.99367 0.33414,-1.49362 0.14542,-0.71526 0.14686,-1.46768 0.49,-2.13683 1.13873,-2.45635 2.6424,-4.72 3.87685,-7.1282 1.5988,-2.53752 3.3487,-4.96497 5.2159,-7.31333 3.28309,-4.15612 6.3729,-8.46331 9.35507,-12.83961 2.33089,-3.6315 4.66817,-7.26073 7.08058,-10.83829 2.2984,-3.06648 4.53108,-6.18001 6.61262,-9.39927 1.0221,-1.52342 1.96715,-3.08742 2.9665,-4.62457 0.99184,-1.5256 2.05851,-3.00408 2.97644,-4.57746 2.14378,-3.33002 4.25663,-6.68715 6.17118,-10.15503 1.35259,-2.4814 2.72479,-4.95195 3.98319,-7.483221 0.63959,-1.286536 1.68312,-3.457781 2.21211,-4.82152 0.2524,-0.650679 0.44008,-1.324642 0.66012,-1.986963 2.22599,-9.64598 -11.41548,-12.794011 -13.64148,-3.148031 z" />
      <circle
         id="path1505"
         style="fill:#000080;stroke:#000000;stroke-width:0.264583"
         cx="126.56586"
         cy="180.51198"
         r="0.13818502" />
      <path
         style="fill:#000080;stroke-width:0.264583"
         id="path1507"
         d="m 121.3596,186.32634 c 1.57162,-0.10656 3.15883,-0.25147 4.68354,-0.67247 0.43311,-0.11959 0.85496,-0.27675 1.28244,-0.41513 9.32825,-3.31416 4.64132,-16.50631 -4.68693,-13.19215 v 0 c 0.61529,-0.009 -0.88231,0.17206 -1.29725,0.24513 -0.0128,0.002 0.0121,0.0231 0.0182,0.0346 -9.89949,0 -9.89949,13.99999 0,13.99999 z" />
      <path
         style="fill:#000080;stroke-width:0.264583"
         id="path1509"
         d="m 113.04491,160.44989 c 0.0406,1.30416 -0.0279,2.6018 -0.1177,3.90187 -0.0578,1.3132 -0.21913,2.61734 -0.32529,3.92696 -0.0152,1.12537 -0.2048,2.26593 -0.1408,3.39301 0.0298,0.52429 0.0871,1.04666 0.13062,1.56999 0.18487,1.28801 0.58666,2.49609 1.12897,3.67579 0.0828,0.18016 0.33491,0.71567 0.27889,0.52545 -0.0626,-0.21267 -0.19939,-0.39603 -0.29909,-0.59405 -0.0433,-0.11252 -0.1274,-0.45811 -0.1299,-0.33757 -0.004,0.1864 0.079,0.3645 0.12558,0.54504 0.0744,0.28855 0.15813,0.5746 0.23711,0.86193 0.25831,0.93975 0.61423,1.7874 1.01878,2.67375 0.50748,1.18359 1.38991,2.10512 2.22856,3.0506 0.0334,0.0377 -0.0765,-0.0662 -0.10899,-0.10469 -0.10196,-0.12061 -0.19585,-0.24782 -0.29378,-0.37173 0.0721,0.45444 -0.69369,-1.42183 -0.54678,-1.05424 0.31681,0.79271 0.63147,1.46568 1.00352,2.21363 0.46218,0.84344 1.04447,1.59764 1.67317,2.32103 6.66071,7.32358 17.01782,-2.0961 10.35711,-9.41968 v 0 c 0.0431,0.0561 0.0888,0.11027 0.12925,0.1683 0.7872,1.12919 -0.50828,-0.77054 0.18324,0.32308 0.0432,0.0999 0.17426,0.39899 0.1297,0.29968 -0.086,-0.19159 -0.16734,-0.38524 -0.25394,-0.57655 -0.0359,-0.0794 -0.13501,-0.31976 -0.11356,-0.23535 0.0444,0.17462 0.25051,0.67561 0.183,0.50858 -0.68227,-1.68814 -0.10365,-0.50249 -0.98732,-2.14873 -0.0769,-0.10896 -1.27134,-1.80537 -1.4704,-1.84621 -0.11325,-0.0232 0.1461,0.17993 0.20758,0.27784 0.12611,0.20084 0.23365,0.41279 0.35428,0.61697 0.0452,0.0766 -0.0854,-0.15603 -0.12804,-0.23404 0.0216,0.0736 0.0495,0.14566 0.0648,0.22085 0.003,0.0131 -0.008,0.0508 -0.0123,0.0381 -0.26398,-0.82969 -0.40988,-1.6882 -0.67339,-2.51934 -0.18994,-0.44949 -0.37677,-0.90031 -0.56982,-1.34847 -0.007,-0.0171 -0.0369,-0.0639 -0.031,-0.0463 0.0682,0.20249 0.15245,0.39942 0.2184,0.60266 0.0163,0.0503 0.0466,0.20577 0.0279,0.15627 -0.0295,-0.0782 -0.0311,-0.16513 -0.0607,-0.24327 -0.009,-0.0226 -0.003,0.0482 -0.004,0.0723 5e-5,0.21061 -0.009,0.4214 1.5e-4,0.63181 0.006,0.14433 0.005,-0.28887 0.008,-0.43328 0.0163,-0.70707 0.0424,-1.4141 0.0909,-2.11976 0.10605,-1.36023 0.27864,-2.71488 0.33658,-4.07882 0.11118,-1.61957 0.18858,-3.23939 0.15075,-4.86341 0,-9.8995 -14,-9.8995 -14,0 z" />
      <path
         style="fill:#000080;stroke-width:0.264583"
         id="path1511"
         d="m 105.81297,167.95155 c 0.67762,1.25788 1.26489,2.57303 2.06801,3.76077 0.27536,0.40724 0.57963,0.79416 0.86944,1.19124 0.6166,0.72047 1.20908,1.54279 1.73542,2.28318 -0.0216,-0.0236 -0.0792,-0.0992 -0.0648,-0.0707 0.35803,0.70813 0.79667,1.38175 1.20372,2.06255 0.8903,1.37356 1.39064,1.93169 2.41374,3.08101 -0.76676,-0.83943 0.13753,0.35379 0.22993,0.54924 0.0815,0.0987 0.48352,1.05308 0.022,0.0125 -0.11795,-0.26593 -0.10531,-0.37431 0.0859,0.4284 0.0184,0.0772 0.0327,0.15543 0.049,0.23315 0.0867,0.61579 0.14265,1.2317 0.22417,1.84973 0.37417,2.09372 0.73313,2.88308 2.33464,4.94837 0.31769,0.40969 0.80319,0.65572 1.20479,0.98358 1.32826,0.92796 2.8608,1.37511 4.3971,1.81157 1.10157,0.33629 2.22779,0.58156 3.37849,0.73608 1.42202,0.18619 2.82005,0.12543 4.22156,-0.21782 0.72614,-0.17784 1.34185,-0.46181 2.01224,-0.74957 1.09204,-0.4453 2.13336,-0.99981 3.16192,-1.57381 1.53526,-0.77204 2.93891,-1.75236 4.2505,-2.85535 0.97987,-0.92354 1.8897,-1.92095 2.76572,-2.94267 0.9695,-1.28438 1.77921,-2.67764 2.51011,-4.10866 0.0788,-0.15516 0.14839,-0.31532 0.23632,-0.46548 0.008,-0.0139 -8e-4,0.0609 0.008,0.0476 0.14576,-0.20988 0.27816,-0.42887 0.40888,-0.64842 0.44413,-0.74599 0.86502,-1.50865 1.29731,-2.26176 1.22946,-1.85085 2.09537,-3.90643 3.12056,-5.87025 1.10303,-2.24308 2.00776,-4.57512 2.80337,-6.94294 0.92832,-2.76276 0.16996,-0.73072 0.97096,-2.81148 0.82174,-1.92757 1.36135,-3.96034 2.12059,-5.91051 0.35131,-0.90238 0.76941,-1.77733 1.15414,-2.66598 1.43129,-3.41929 3.09437,-6.73921 4.78442,-10.0367 1.6832,-3.1615 3.01584,-6.49169 4.43519,-9.77649 0.88658,-2.32967 2.1052,-4.5157 3.0319,-6.82761 0.77223,-1.92651 0.97054,-2.6777 1.59461,-4.64637 0.20316,-0.7368 0.40632,-1.47359 0.60947,-2.21039 2.61109,-9.54894 -10.89315,-13.24158 -13.50423,-3.69264 v 0 c -0.15407,0.56961 -0.30815,1.13922 -0.46222,1.70884 -0.31234,1.00749 -0.66682,2.228 -1.05988,3.22008 -0.92626,2.33784 -2.17415,4.53959 -3.06129,6.89511 -1.29913,3.00676 -2.50751,6.05982 -4.04754,8.95381 -1.82199,3.56788 -3.62162,7.15551 -5.1691,10.85253 -0.41941,0.96972 -1.13191,2.59446 -1.50103,3.5485 -0.72339,1.86968 -1.24376,3.81456 -2.02965,5.66146 -1.01865,2.75041 -1.80708,5.59102 -3.09785,8.23553 -0.92478,1.79202 -1.7186,3.65979 -2.8343,5.34594 -0.75407,1.3137 -1.52454,2.61694 -2.27707,3.92992 -0.12575,0.24625 -0.24803,0.54319 -0.39663,0.78348 -0.15772,0.25503 -0.3273,0.50263 -0.48397,0.75831 -0.0172,0.0281 -0.0653,0.10876 -0.037,0.0919 0.0648,-0.0386 0.10441,-0.10876 0.15662,-0.16314 -0.38448,0.5163 -0.89158,0.93601 -1.29503,1.43799 0.0816,-0.003 0.0954,-0.0127 -0.0719,0.10235 -0.57161,0.3932 -1.1755,0.7437 -1.79208,1.06034 -0.62489,0.35678 -1.22885,0.68201 -1.90529,0.94797 -0.0659,0.0305 -0.27034,0.0958 -0.1978,0.0916 0.14965,-0.009 0.28878,-0.0842 0.43718,-0.10545 0.6076,-0.0871 0.7642,-0.11035 1.26083,-0.0621 0.14593,0.0142 -0.52678,-0.0316 -0.4391,-0.0253 -0.38624,0.0173 -0.83016,-0.24324 -1.24832,-0.30719 -0.32502,-0.092 -0.64236,-0.21626 -0.97441,-0.27823 -0.0983,-0.0183 0.18635,0.0729 0.27735,0.11437 0.19737,0.0899 -0.41476,1.25265 0.53478,0.37029 1.33394,1.19729 0.91853,0.69318 2.21031,3.2471 0.10075,0.19919 0.079,0.44057 0.14547,0.65368 0.1218,0.39069 -0.19451,-0.99469 -0.14676,-0.72068 0.0115,0.14225 0.0372,0.56943 0.0343,0.42675 -0.0204,-1.00302 -0.21477,-2.00012 -0.39688,-2.9825 -0.31658,-1.39133 -0.65656,-2.79336 -1.37665,-4.04158 -0.75764,-1.41304 -1.60828,-2.79947 -2.71161,-3.97204 0.12717,0.16235 0.23652,0.34041 0.38152,0.48706 0.11913,0.12049 -0.19887,-0.27449 -0.30329,-0.40794 -1.85047,-2.36472 0.0747,0.12606 -0.45488,-0.53516 -0.47818,-0.78844 -0.93934,-1.58666 -1.38867,-2.39208 -0.74667,-1.10654 -1.53665,-2.18606 -2.39197,-3.21196 -0.21287,0.0131 -0.0553,0.0167 -0.31748,-0.42679 -0.51738,-0.87507 -0.9357,-1.79935 -1.42374,-2.69003 -4.74039,-8.69072 -17.03093,-1.98679 -12.29053,6.70393 z" />
      <path
         style="fill:#000080;stroke-width:0.264583"
         id="path1513"
         d="m 39.367489,96.229539 c -0.928307,1.460259 -1.859661,2.919167 -2.764531,4.394061 -0.762744,1.12367 -1.545042,2.22101 -2.202278,3.41125 -1.238157,2.75926 -0.165171,0.42522 -0.16932,0.39883 -0.01312,-0.0834 -0.09577,0.1392 -0.140742,0.21069 -0.439077,0.69793 -0.33586,0.54128 -0.765493,1.34074 -0.0049,-0.23946 0.260329,-0.39556 0.369353,-0.60526 0.04251,-0.0818 -0.227872,0.2895 -0.175487,0.21367 0.05644,-0.0817 0.262281,-0.29685 0.187679,-0.23132 -0.211217,0.18552 -0.496718,0.55901 -0.306337,0.31306 -0.141505,0.12277 -0.160205,0.15301 -0.08781,0.0606 -0.17435,0.14627 -0.344289,0.29797 -0.523052,0.43881 -0.09676,0.0762 0.196241,-0.15163 0.27681,-0.2448 0.02482,-0.0287 -0.06728,0.0533 -0.104392,0.0454 -0.02291,-0.005 0.02463,-0.0399 0.03695,-0.0598 -1.939949,0.58603 -3.880843,1.14653 -5.771399,1.88461 -1.710504,0.72158 -3.276621,1.75032 -4.83421,2.75275 -8.323115,5.35964 -0.743438,17.13031 7.579677,11.77067 v 0 c 0.308491,-0.19879 0.611246,-0.40668 0.924621,-0.59767 0.301117,-0.18352 0.60928,-0.35533 0.909905,-0.53966 0.113615,-0.0697 0.246174,-0.12051 0.332454,-0.22208 0.04186,-0.0493 -0.242826,0.0839 -0.187145,0.051 0.143068,-0.0844 0.301967,-0.13859 0.452948,-0.20789 2.046822,-0.85058 4.25998,-1.20759 6.291596,-2.10395 0.429586,-0.20587 0.867138,-0.39589 1.288759,-0.61762 1.114901,-0.58633 2.095762,-1.40101 3.030588,-2.23557 1.062257,-1.0395 2.088136,-2.13493 2.765835,-3.47632 -0.02024,0.0273 -0.04322,0.11119 -0.06076,0.082 -0.01889,-0.0314 0.0321,-0.0661 0.05174,-0.097 0.09436,-0.14873 0.197908,-0.29157 0.290033,-0.44169 0.503899,-0.82109 0.543145,-0.88872 0.938816,-1.77621 0.05247,-0.11768 -0.117345,0.22944 -0.176019,0.34416 -0.03927,0.0574 -0.07268,0.11932 -0.117798,0.17226 -0.01982,0.0233 0.02392,-0.0566 0.04092,-0.082 0.08839,-0.132 0.183015,-0.25972 0.274794,-0.38939 0.527729,-0.74562 1.040762,-1.49926 1.530225,-2.27095 0.743405,-1.22948 1.540642,-2.42614 2.282317,-3.65687 5.676987,-8.109981 -5.792258,-16.138455 -11.469245,-8.028471 z" />
      <path
         style="fill:#000080;stroke-width:0.264583"
         id="path1515"
         d="m 23.44083,131.84047 c 1.498338,-0.886 3.083797,-1.61133 4.597023,-2.46998 0.67954,-0.3856 1.869893,-1.11626 2.558021,-1.53497 1.71777,-0.93372 3.304791,-2.08531 5.029025,-3.00481 1.399069,-0.62708 2.816577,-1.21621 4.218488,-1.83883 1.953424,-0.97048 3.865308,-2.03466 5.75003,-3.13403 1.607188,-1.03397 3.233833,-2.02931 4.913697,-2.93963 1.555538,-0.88494 3.138072,-1.71203 4.763563,-2.45996 8.983575,-4.15876 3.102184,-16.86346 -5.881391,-12.70469 v 0 c -1.889987,0.87889 -3.744418,1.82378 -5.555213,2.85732 -1.815541,0.98487 -3.588366,2.03976 -5.318905,3.16812 -1.435076,0.84646 -2.90268,1.64236 -4.371515,2.42565 -1.723609,0.77208 -3.485218,1.46316 -5.174448,2.30932 -1.92777,1.04973 -3.743014,2.28018 -5.652464,3.36268 -0.647802,0.39445 -1.285495,0.80607 -1.944082,1.18224 -1.472973,0.84132 -3.023765,1.54057 -4.482257,2.40854 -8.7490541,4.63185 -2.198626,17.00488 6.550428,12.37303 z" />
      <path
         style="fill:#000080;stroke-width:0.264583"
         id="path1517"
         d="m 46.051686,150.1086 c 2.019385,-0.0675 4.008237,-0.35435 5.972376,-0.81445 1.733021,-0.44374 3.295981,-1.31165 4.869236,-2.13123 1.720207,-0.96127 3.312372,-2.13578 4.861356,-3.34883 1.101307,-0.94298 2.154111,-1.95816 3.063695,-3.09072 0.374087,-0.46579 0.723038,-0.95134 1.094904,-1.4189 1.26787,-1.64391 2.592433,-3.22701 4.076732,-4.67945 1.529442,-1.41236 3.401488,-2.36019 5.242975,-3.29271 8.802561,-4.52934 2.397109,-16.97804 -6.405451,-12.4487 v 0 c -3.09767,1.61131 -6.172089,3.32138 -8.685107,5.79027 -1.882759,1.87651 -3.622894,3.87265 -5.239504,5.98351 -0.587253,0.75308 -1.128347,1.54203 -1.844347,2.18502 -0.841049,0.68409 -1.735846,1.30144 -2.635588,1.90541 -0.637194,0.3322 -1.27363,0.69697 -1.91049,0.99388 -0.211392,0.20953 -0.02764,0.0455 -0.733751,0.15561 -0.928592,0.14475 -1.863198,0.19629 -2.800786,0.25252 -9.870334,0.75926 -8.796584,14.71802 1.07375,13.95877 z" />
      <path
         style="fill:#000080;stroke-width:0.264583"
         id="path1519"
         d="m 43.756492,142.49274 c 3.368011,-0.90876 6.504379,-2.50572 9.618255,-4.04869 2.444951,-1.22797 4.837753,-2.55451 7.28509,-3.77714 1.947273,-1.14398 3.999516,-2.08587 5.997036,-3.13492 0.944009,-0.53991 1.921327,-1.01472 2.904537,-1.47731 8.945354,-4.24036 2.948578,-16.891 -5.996776,-12.65064 v 0 c -1.161023,0.55327 -2.320123,1.11129 -3.44008,1.74535 -1.903043,1.01016 -3.876824,1.88643 -5.726833,2.9961 -2.437653,1.22024 -4.826484,2.53271 -7.258708,3.76399 -2.069994,1.03502 -4.161137,2.04878 -6.315927,2.89403 -9.679752,2.07423 -6.746343,15.76346 2.933406,13.68923 z" />
      <path
         style="fill:#000080;stroke-width:0.264583"
         id="path1521"
         d="m 207.97278,61.759739 c -2.72294,3.114241 -5.54335,6.140112 -8.27815,9.243944 -4.27649,5.066996 -8.3903,10.271696 -12.41366,15.541413 -4.00371,5.527336 -7.84677,11.169182 -11.77021,16.753804 -4.10487,5.99982 -8.03748,12.11123 -11.88721,18.27675 -1.88341,2.97429 -3.61841,6.03916 -5.48013,9.02665 -1.1338,1.9369 -2.27187,3.87121 -3.40378,5.80936 -1.69468,2.76256 -3.2737,5.59272 -4.79129,8.45561 -1.5108,2.5751 -2.88907,5.22369 -4.24255,7.88397 -0.96964,1.86459 -1.97461,3.70536 -3.04649,5.51308 -0.52775,0.84056 -0.98298,1.72327 -1.48004,2.58156 -0.20598,0.35569 -0.43241,0.81605 -0.7569,1.09188 -0.52439,0.37842 -1.02132,0.79597 -1.52314,1.20491 -7.6602,6.27066 1.20785,17.10383 8.86806,10.83317 v 0 c 1.21926,-1.0062 2.48964,-1.96489 3.50548,-3.19112 0.29557,-0.37796 0.60494,-0.74552 0.8867,-1.13389 0.9747,-1.34352 1.67829,-2.85362 2.55047,-4.26035 1.21828,-2.06452 2.36949,-4.16345 3.47387,-6.29105 1.31867,-2.5921 2.66439,-5.17008 4.13631,-7.67936 1.42511,-2.69307 2.91513,-5.35111 4.50909,-7.9485 1.06577,-1.8252 2.13842,-3.64645 3.20108,-5.47317 1.85408,-2.98368 3.59624,-6.03541 5.46851,-9.008 3.71554,-5.95077 7.5092,-11.8503 11.46753,-17.64353 3.81758,-5.43404 7.56233,-10.91975 11.44382,-16.308175 3.82305,-5.011476 7.73683,-9.957205 11.79185,-14.783247 2.84414,-3.232523 5.79455,-6.36919 8.60618,-9.630378 6.26873,-7.661789 -4.56667,-16.527116 -10.8354,-8.865331 z" />
      <path
         style="fill:#000080;stroke-width:0.264583"
         id="path1523"
         d="m 147.75708,188.18522 c 2.98326,-4.13418 5.61409,-8.51079 8.30604,-12.83683 4.02824,-6.32142 8.10902,-12.60985 12.17138,-18.90973 4.15908,-6.37744 8.54414,-12.60236 12.81373,-18.90525 2.91005,-4.29037 5.78622,-8.60342 8.60692,-12.95306 0.48469,-0.74247 0.96041,-1.49088 1.45408,-2.22741 0.82004,-1.22348 2.36905,-3.41932 3.18682,-4.60774 1.93547,-2.81269 3.83295,-5.65147 5.73183,-8.48888 3.58093,-5.32994 6.96925,-10.787625 10.31334,-16.268511 2.43156,-3.912188 4.81411,-7.854982 7.25079,-11.763899 1.40678,-2.238962 2.741,-4.526248 4.2035,-6.730119 0.70653,-1.064681 1.45509,-2.100868 2.17913,-3.153719 1.30994,-1.804565 0.66564,-0.918036 1.93281,-2.659661 5.82414,-8.004963 -5.49659,-16.241538 -11.32072,-8.236574 v 0 c -1.35273,1.859293 -0.63646,0.87177 -2.14769,2.963391 -0.12583,0.182984 -2.44131,3.549949 -2.45431,3.56955 -1.48644,2.241558 -2.84581,4.565808 -4.2749,6.843503 -2.4585,3.947321 -4.86677,7.926036 -7.32025,11.87655 -3.24128,5.314112 -6.52531,10.605881 -9.99678,15.773289 -1.85272,2.76868 -3.7033,5.53931 -5.5919,8.28374 -1.1747,1.70703 -2.26077,3.22384 -3.41489,4.94622 -0.50155,0.7485 -0.98501,1.50896 -1.47753,2.26344 -2.76928,4.27123 -5.59434,8.50567 -8.45151,12.71861 -4.3283,6.39064 -8.77565,12.70095 -12.98841,19.16952 -4.10313,6.36315 -8.22513,12.71456 -12.29222,19.10049 -2.57103,4.13227 -5.07765,8.31713 -7.92995,12.26414 -5.6349,8.13929 5.87579,16.10823 11.51069,7.96894 z" />
    </g>
  </g>
</svg>
