<svg>
    <path d="m 27.07835,51.878203 c -2.426318,4.852948 -4.34255,9.935652 -5.819751,15.154478 -0.539603,1.906374 -0.999267,3.834472 -1.4989,5.751706 -0.480399,2.289447 -1.004482,4.570164 -1.441196,6.868345 -0.797693,4.197803 -1.608773,9.492073 -2.190502,13.754854 -0.256083,1.876526 -0.974779,7.727324 -1.169668,9.932394 -0.08108,0.91734 -0.102789,1.83896 -0.154184,2.75843 1.694381,7.21732 0.291592,6.9593 14.003131,3.10289 1.170591,-0.32923 1.001527,-2.21629 1.488035,-3.33074 1.797013,-4.11639 1.733598,-4.19699 3.708921,-8.500556 0.748755,-1.631285 1.536359,-3.244455 2.304537,-4.866684 2.1722,-4.640985 4.634336,-9.132674 7.288533,-13.513062 0.59591,-0.98347 3.12875,-5.068454 3.959045,-6.230898 0.298518,-0.417941 0.668715,-0.77973 1.003072,-1.169593 -2.613932,2.987373 -1.558039,2.399937 -9.250217,0.103293 -0.758589,-0.226491 -0.722304,-2.227942 -1.438251,-1.89004 -0.827855,0.390715 -0.205962,1.819441 -0.333005,2.726007 -0.625456,4.463275 -0.797403,5.153816 -1.631,9.828974 -1.908201,10.290035 -4.11848,20.520679 -6.070875,30.801779 -1.196033,6.48804 -2.582449,9.58222 9.730092,11.63096 1.962912,0.32662 2.815688,-2.83126 4.006503,-4.42552 0.496023,-0.66407 4.173945,-7.82825 4.29255,-8.05652 5.815764,-11.19336 11.129497,-22.635837 16.471638,-34.059651 0.497784,-0.930431 0.944689,-1.88993 1.493358,-2.791296 0.09321,-0.153136 0.276268,-0.228547 0.414401,-0.342821 -3.035853,0.565896 -6.050446,2.134397 -9.107558,1.697694 -1.452902,-0.207542 -1.36433,-3.090347 -2.799255,-3.398554 -0.894911,-0.192218 -0.193545,1.82109 -0.333875,2.725589 -0.220446,1.4209 -0.498729,2.832219 -0.748094,4.24833 -2.399839,10.587918 -6.322721,20.745349 -10.320551,30.812669 -0.348573,0.69958 -0.646748,1.42662 -1.045721,2.09873 -0.03036,0.0511 -0.179686,-0.10796 -0.123851,-0.12846 2.353402,-0.86434 4.619453,-2.68129 7.114841,-2.43913 1.819659,0.17658 2.497701,2.85021 4.192252,3.5364 0.551804,0.22344 0.09546,-1.18682 0.145015,-1.78008 0.112713,-1.34936 0.227854,-2.69851 0.341778,-4.04776 1.106813,-8.964576 2.994676,-18.070572 6.990212,-26.238767 0.586849,-1.199716 1.306764,-2.329635 1.960147,-3.494453 0.603409,-0.850542 1.171319,-1.727417 1.810227,-2.551623 0.469016,-0.605038 0.961228,-1.196573 1.509477,-1.730869 0.222639,-0.216975 0.780767,-0.815449 0.784354,-0.504587 0.0042,0.35965 -0.431929,0.659643 -0.781595,0.74391 -3.668889,0.884185 -3.222421,0.601424 -5.967629,-0.829889 -0.05848,0.18973 -0.174773,0.370652 -0.175435,0.569187 -0.02146,6.454651 0.587076,-2.975922 0.122868,5.828491 -0.275498,5.225256 -1.200182,10.372629 -2.050579,15.525321 -1.321499,7.015529 -2.65638,14.030579 -4.289063,20.981279 4.583702,0.997 9.070213,2.68513 13.751107,2.991 0.728414,0.0476 0.524042,-1.36268 0.795073,-2.04047 1.229633,-3.07503 1.571858,-3.94128 3.086936,-7.08944 1.758133,-3.6532 2.820197,-5.57481 4.729954,-9.18418 0.903213,-1.664113 3.472706,-6.433456 4.512593,-8.223579 0.499787,-0.860361 0.992137,-1.728745 1.569958,-2.538767 0.143248,-0.200816 -0.0094,0.668359 -0.254606,0.694836 -8.979127,0.969386 -6.952943,2.238817 -10.444824,-1.666658 -0.155794,0.838742 -0.275164,1.685078 -0.467389,2.516232 -1.34026,5.795137 -3.212115,11.421746 -5.202282,17.020476 -1.930583,5.43112 -1.80557,5.00202 -3.740301,9.89266 -0.119676,0.0457 -0.486934,0.12984 -0.359034,0.13712 3.979227,0.22634 7.978891,0.91035 11.94558,0.52194 0.620884,-0.0608 0.502669,-1.14891 0.649536,-1.75524 0.444923,-1.8368 0.68948,-3.71787 1.121847,-5.55767 1.176274,-5.00529 2.409777,-8.92286 3.868549,-13.868897 1.787396,-5.782712 3.895884,-11.459739 6.127515,-17.083638 0.487008,-1.227299 0.939585,-2.470499 1.497883,-3.667056 0.191833,-0.411147 1.168016,-1.302515 0.744693,-1.139301 -2.367317,0.912738 -4.518035,2.310082 -6.777053,3.465123 -1.800545,-1.397214 -3.248208,-3.445377 -5.401638,-4.19164 -0.700024,-0.242591 -0.226695,1.464699 -0.369525,2.191666 -0.269362,1.370973 -0.537197,2.743197 -0.866817,4.100943 -1.22015,5.025946 -2.838707,9.942899 -4.417515,14.863474 5.609402,-1.372539 -3.88261,5.076686 -1.997245,5.359156 4.265425,0.63906 8.692663,-0.5449 12.937212,0.22063 0.811163,0.14629 0.265385,2.74526 0.948275,2.28369 1.260935,-0.85228 1.180478,-2.80746 1.849284,-4.17458 0.954069,-1.950237 2.011254,-3.848318 3.01688,-5.772476 3.58748,-6.28953 3.533825,-6.359837 7.320335,-12.368948 1.052571,-1.670413 2.092045,-3.351062 3.221712,-4.97033 0.731578,-1.048647 1.478341,-2.097403 2.357033,-3.026257 0.101296,-0.107079 0.582242,0.05526 0.436007,0.07376 -2.35534,0.298016 -4.720622,0.511336 -7.080935,0.767006 -0.771584,-0.451848 -1.735569,-2.03676 -2.314755,-1.355543 -0.968206,1.138764 -0.168675,2.986194 -0.334653,4.471675 -0.2618,2.34305 -0.577075,4.680808 -0.948135,7.009054 -0.940887,5.903648 -2.019146,11.138193 -3.37408,16.967659 -0.617908,2.65847 -1.316699,5.2975 -1.975046,7.94625 -0.607562,2.21792 -1.192466,4.44217 -1.822683,6.65376 -0.483401,1.69637 -0.976548,3.39056 -1.517943,5.06932 -0.297059,0.92112 -1.364729,1.83218 -0.996408,2.7272 0.316905,0.77008 0.391927,-2.24475 1.222052,-2.17889 13.528138,1.07324 11.142073,8.0227 12.536998,-0.4028 2.138432,-10.6363 5.621383,-20.96671 9.716143,-30.99974 0.58115,-1.423934 1.2198,-2.823715 1.82969,-4.235574 0.36157,-0.635323 1.81558,-1.891763 1.08472,-1.905966 -3.71792,-0.07225 -7.307678,1.570522 -11.023566,1.712831 -0.762923,0.02922 -1.483164,-1.827451 -1.940801,-1.216324 -1.136695,1.517933 -0.803965,3.708109 -1.296503,5.539396 -1.604976,5.96741 -2.610144,8.592386 -4.618736,14.488227 -0.809628,2.22638 -1.598753,4.46032 -2.428878,6.67913 -0.669523,1.78955 -1.330102,3.58364 -2.06983,5.34533 -0.411075,0.979 -2.257234,2.27249 -1.380125,2.8709 0.868426,0.5925 0.880007,-2.69485 1.914282,-2.50647 13.991248,2.54831 8.854352,9.82723 13.173763,0.20185 4.069474,-8.36234 3.675094,-7.69704 8.137674,-16.24131 1.3637,-2.611023 2.71484,-5.229459 4.14466,-7.804865 1.09258,-1.967939 2.1393,-3.971603 3.42081,-5.822069 0.45267,-0.65364 2.51076,-1.828332 1.74059,-1.630873 -1.76049,0.451358 -3.25212,1.623531 -4.87819,2.435296 -1.58165,-0.734147 -3.04535,-2.592237 -4.74496,-2.202439 -1.12079,0.25705 -0.31624,2.278591 -0.52085,3.410132 -0.35371,1.956097 -0.7114,3.912807 -1.15376,5.850782 -1.34599,5.896776 -3.151769,11.656646 -5.025228,17.400886 -2.720676,5.90796 0.383005,-1.5244 2.662957,-1.41704 3.304331,0.1556 5.670141,3.91891 8.959761,4.2671 1.10341,0.1168 0.48242,-2.16708 0.77901,-3.23628 1.36955,-4.93732 1.88509,-6.13418 3.63084,-11.13571 1.21741,-3.132727 2.70595,-7.140831 4.15142,-10.239099 0.31038,-0.665274 1.81527,-1.959343 1.08231,-1.918055 -3.4652,0.195202 -6.70589,3.022629 -10.12517,2.427455 -5.55686,-0.967251 -1.3132,-9.772865 -4.41373,-1.131036 -1.7833,4.460113 -2.171,5.523611 -4.103354,9.970755 -0.640723,1.47456 -1.265684,2.95739 -1.971362,4.40199 -0.357794,0.73244 -2.028812,2.17758 -1.215552,2.12197 13.327648,-0.91128 6.480278,-6.82428 13.311458,2.31904 0.63635,-1.45915 1.24135,-2.93238 1.90906,-4.37745 1.79902,-3.89352 4.34155,-8.994506 6.33186,-12.738953 1.15856,-2.179642 5.12213,-9.309684 6.5754,-11.633416 0.68952,-1.102501 1.49266,-2.129724 2.23898,-3.194588 3.18812,0.641025 2.97921,0.573141 -8.58185,0.127273 -0.48149,-0.01857 -1.18326,-0.894278 -1.37324,-0.451464 -0.63105,1.470869 -0.24885,3.193899 -0.48267,4.777253 -0.85434,5.785456 -1.56361,8.072456 -2.98204,13.904259 -1.81814,6.743106 -3.8466,13.441236 -6.24968,20.001386 -0.44427,1.2128 -0.89514,2.42596 -1.43517,3.59926 -0.0875,0.19004 -0.63666,0.41606 -0.43129,0.45595 4.3181,0.83876 8.69659,1.32943 13.04489,1.99414 3.31424,-10.6725 8.04663,-20.85584 13.28329,-30.708993 0.9089,-1.710155 1.87826,-3.387484 2.81739,-5.081225 0.66875,-0.968623 1.65158,-1.783524 2.00624,-2.905876 0.2628,-0.831615 -0.8412,2.003986 -1.71296,1.977774 -3.01615,-0.09069 -5.74618,-2.486909 -8.75744,-2.292612 -0.97799,0.0631 -0.34431,1.92963 -0.53012,2.891877 -1.49619,7.748426 -0.80672,4.567277 -3.06159,12.873114 -1.97501,5.946981 -3.74862,12.018461 -6.41109,17.711961 -0.27211,0.58188 -1.63413,1.68998 -0.99292,1.65157 13.21498,-0.79162 7.46509,-5.77257 13.25193,1.61677 0.63336,-1.56632 1.21797,-3.15326 1.90008,-4.69897 2.01832,-4.57362 4.82976,-10.23058 7.08213,-14.62415 1.45932,-2.846613 5.78204,-11.024931 7.50324,-14.046856 0.85855,-1.507371 1.80013,-2.965916 2.70019,-4.448874 0.26297,-0.235624 1.12911,-0.612322 0.78892,-0.706874 -3.91971,-1.089438 -7.92882,-1.902574 -11.9666,-2.399834 -0.40013,-0.04928 -0.72042,0.451633 -0.89252,0.816208 -0.79677,1.687864 -1.28783,3.504043 -1.96746,5.242382 -2.33062,5.961229 -3.15435,7.764801 -5.68953,13.709637 -0.92257,2.124721 -1.82222,4.259551 -2.76771,6.374171 -0.71932,1.60878 -1.43843,3.21886 -2.22637,4.79517 -0.39283,0.78588 -2.18995,2.23201 -1.31298,2.28548 0.97935,0.0597 0.92815,-2.39794 1.89807,-2.2498 11.72545,1.79087 9.07482,8.18043 10.90041,1.91812 1.63885,-5.38825 3.72043,-10.64711 6.06372,-15.766614 0.67128,-1.466557 1.36965,-2.922873 2.14384,-4.337799 0.40934,-0.748107 1.20584,-1.310494 1.40093,-2.140651 0.15995,-0.680617 -0.85805,1.104106 -1.28707,1.656159 -3.44326,-1.221462 -6.721,-3.094611 -10.32979,-3.664386 -0.6934,-0.109474 -0.70714,1.22252 -0.9384,1.885312 -0.67876,1.945328 -1.17427,3.949925 -1.78427,5.917896 -1.63867,5.286663 -3.41853,10.524173 -4.99746,15.828903 -0.30985,7.1406 -1.53917,7.99164 13.93706,4.77618 1.81283,-0.37665 1.9312,-3.15966 2.90545,-4.73415 1.21177,-1.95833 2.40421,-3.92906 3.65258,-5.86427 3.11775,-4.83309 5.13162,-7.655806 8.38797,-12.351549 1.19207,-1.64084 2.38415,-3.28168 3.57622,-4.92252 0.84574,-0.946856 1.76963,-1.829326 2.53723,-2.840564 0.50551,-0.665951 -0.91209,1.75781 -1.74712,1.799675 -2.2771,0.114168 -4.47454,-1.871594 -6.70003,-1.376164 -0.94891,0.211246 -0.14251,1.939242 -0.19083,2.910186 -0.0995,2.000507 -0.1685,4.002418 -0.25275,6.003629 -0.46061,6.962617 -1.33776,13.887947 -2.27277,20.799667 -0.56279,4.16023 -1.14822,8.31644 -1.88555,12.44936 0.53188,-5.01822 -0.44832,3.08762 13.75925,0.93493 1.14018,-0.17275 0.25476,-2.2925 0.41,-3.4352 0.88978,-6.54983 2.01776,-13.06727 3.08675,-19.58928 0.38162,-2.22874 0.75756,-4.45845 1.14485,-6.686204 0.56246,-3.23532 1.11963,-6.471745 1.72152,-9.699961 0.1252,-0.671475 1.08154,-1.892564 0.40832,-2.008047 -14.93205,-2.56145 -13.35853,-4.38491 -14.75426,3.315065 -0.99093,5.204227 -1.92856,10.418337 -2.86134,15.633217 -0.45072,2.51986 -0.87756,5.04733 -1.38629,7.55669 4.66511,0.36804 9.36333,1.76985 13.99534,1.10411 1.06654,-0.1533 0.3445,-2.12729 0.52014,-3.19038 1.04999,-6.35503 2.10602,-12.709075 3.15683,-19.063975 1.2501,-7.327466 2.41643,-10.57543 -12.33475,-9.408633 -2.02472,0.160152 -2.1092,3.471786 -3.13521,5.224624 -2.9825,5.095311 -5.89235,10.232821 -8.85088,15.342094 -4.37369,7.39808 -8.56522,14.90601 -13.00467,22.26548 -0.83513,1.38443 -1.68321,2.76177 -2.57196,4.1124 -0.33441,0.5082 -1.65351,1.21914 -1.09492,1.46012 4.02383,1.73596 8.44263,2.35398 12.66394,3.53097 0.36372,-0.54337 0.80934,-1.04009 1.09117,-1.6301 0.98186,-2.05545 1.77838,-4.1945 2.68861,-6.28266 1.09065,-2.50203 2.19322,-4.99894 3.31392,-7.48765 2.86626,-6.36496 5.8254,-12.68629 8.8572,-18.97366 0.54894,-0.96951 1.09788,-1.93901 1.64682,-2.908512 0.004,0.112472 0.1232,0.359884 0.0129,0.337413 -3.93881,-0.802468 -7.81716,-1.880701 -11.74659,-2.727958 -0.27891,-0.06014 -0.67643,-0.211185 -0.85589,0.01064 -0.9114,1.126503 -1.46034,2.503196 -2.19051,3.754797 -1.19244,1.44142 -2.38489,2.88285 -3.57734,4.32428 -4.18973,3.67985 -4.96635,4.77097 -9.88413,7.46509 -2.47314,1.35486 -5.84124,2.80468 -8.7733,3.01914 -2.36338,0.17287 -2.10862,0.0858 -2.20756,-1.21412 0.25982,-0.14921 0.6023,-0.20601 0.77947,-0.44763 0.24455,-0.33352 0.30541,-0.77106 0.40791,-1.17172 0.22698,-0.88721 0.35092,-1.79873 0.57894,-2.68568 0.33568,-1.30569 0.68997,-2.60816 1.11125,-3.88881 1.00384,-3.05155 1.72812,-4.56013 2.97759,-7.450698 0.36785,-0.68898 0.7357,-1.37796 1.10354,-2.066941 -0.097,0.212053 -0.0683,0.705731 -0.2909,0.636157 -4.20645,-1.315056 -8.0437,-3.901549 -12.39489,-4.602091 -0.88773,-0.142928 -0.79194,1.61477 -1.20763,2.412079 -3.60328,6.911104 -2.20351,4.350663 -6.8367,11.574814 -2.578744,3.55912 -6.153622,8.66967 -9.075426,12.04806 -1.04788,1.21162 -2.13664,2.40853 -3.389371,3.4069 -0.296389,0.23622 -1.494271,0.25566 -1.121362,0.18798 5.76843,-1.04696 3.443068,-1.50691 7.258126,-0.008 0.07092,-5.62061 0.935789,-11.18789 1.882183,-16.71524 0.128638,-0.75131 0.964753,-1.74658 0.394552,-2.25243 -3.224358,-2.860477 -7.236518,-4.684882 -10.854777,-7.027326 -4.956972,5.647506 -3.220189,3.138239 -6.616489,8.724836 -0.854403,1.40541 -1.607325,2.87525 -2.536875,4.23214 -0.468389,0.68371 -2.426994,2.13193 -1.641615,1.86729 7.873187,-2.65294 -3.751652,-4.33475 9.096983,-0.46109 0.05349,-0.54562 0.14849,-1.08875 0.160486,-1.63686 0.02755,-1.25884 -0.05159,-2.51809 -0.042,-3.7772 0.02876,-3.77569 0.256083,-7.539418 0.58755,-11.298862 -4.524158,-0.98562 -8.942493,-3.009222 -13.572471,-2.956856 -1.064165,0.01204 -0.48381,2.073278 -0.686004,3.118122 -0.206505,1.067115 -0.363395,2.143245 -0.539708,3.21576 -0.692414,4.211986 -0.660024,4.097766 -1.329425,8.420696 -0.208873,1.34887 -0.419153,2.69753 -0.628732,4.0463 -0.642356,3.76739 -1.232048,7.5444 -1.893266,11.30849 -1.707015,9.75121 12.083277,12.1653 13.790295,2.41409 v 0 c 0.672468,-3.8529 1.284653,-7.71662 1.936964,-11.57301 0.637236,-4.1011 1.258321,-8.20458 1.931181,-12.300044 0.170952,-1.040519 0.388263,-2.07404 0.523269,-3.119832 0.01884,-0.145941 0.07751,-0.396859 -0.06413,-0.436774 -4.436875,-1.250431 -8.942858,-2.241206 -13.414287,-3.361809 -0.37256,4.256709 -0.654304,8.531249 -0.638371,12.806819 0.0064,1.72117 -0.04739,3.45059 0.138798,5.16167 0.21686,1.99296 0.711268,3.94586 1.066903,5.9188 2.712119,2.03612 4.83703,5.32363 8.13636,6.10837 2.203472,0.52408 4.375439,-1.40331 6.240111,-2.68898 1.637673,-1.12916 4.361656,-6.1195 5.300527,-7.66878 0.720239,-1.18851 1.721835,-2.24144 2.181173,-3.55303 0.09848,-0.28121 -0.585203,-0.11243 -0.877803,-0.16864 -3.18162,-2.57628 -5.943346,-5.78231 -9.544862,-7.72885 -0.698987,-0.377781 -0.277964,1.56462 -0.410938,2.34796 -0.256019,1.50818 -0.533223,3.01312 -0.756028,4.52656 -0.884685,6.00935 -1.646987,12.0698 -0.839457,18.14259 1.33989,2.486 1.697294,5.85112 4.019672,7.45801 7.397482,5.11843 13.508807,-1.09436 17.766034,-6.03637 3.23863,-3.75958 7.01916,-9.21143 9.87096,-13.17129 3.58906,-5.67037 5.14483,-7.68558 7.88145,-13.546359 0.79032,-1.69255 3.22194,-3.72537 2.07997,-5.203621 -2.84526,-3.683092 -7.49699,-5.716788 -11.82949,-7.416818 -1.88493,-0.73963 -1.74148,6.164691 -3.181,5.175086 -1.45352,3.412357 -2.53764,5.729811 -3.63722,9.358102 -0.58312,1.92415 -1.16508,3.86092 -1.48673,5.84559 -0.70529,4.3517 -1.01021,8.88147 1.08889,13.00327 1.04075,2.04361 2.93946,3.52101 4.40919,5.28151 2.00473,0.8214 3.8904,2.03625 6.0142,2.4642 4.05551,0.81721 8.86972,-0.31445 12.61048,-1.72143 4.74519,-1.78476 9.63817,-4.70653 13.58305,-7.84063 2.21678,-1.76118 4.15806,-3.84369 6.23708,-5.76554 3.17094,-4.07554 6.21932,-7.26235 8.03203,-12.16557 0.79237,-2.143314 3.03129,-4.991543 1.50134,-6.688871 -7.41012,-8.220776 -10.76851,-7.663079 -14.3285,-2.426774 -0.78895,1.160449 -1.36512,2.4521 -2.04768,3.678147 -3.09627,6.425168 -6.1207,12.883618 -9.04854,19.387708 -0.67995,1.51048 -5.47528,12.30885 -6.22734,14.30838 -0.78589,2.08946 -1.37235,4.24859 -2.05852,6.37288 4.20665,1.71105 8.1639,4.25724 12.61994,5.13316 0.93736,0.18426 1.15409,-1.52438 1.67927,-2.32237 0.95668,-1.45366 1.86506,-2.9389 2.76395,-4.42898 4.45665,-7.38766 8.66403,-14.9246 13.05463,-22.35105 0.96457,-1.66582 7.63245,-13.158471 8.89109,-15.412007 0.55368,-0.991327 2.43552,-2.278552 1.57564,-3.020089 -3.24749,-2.800517 -7.67643,-3.828743 -11.57888,-5.606354 -0.1105,-0.05033 0.0399,0.239538 0.0598,0.359307 -0.18492,1.073906 -0.36983,2.147813 -0.55475,3.22172 -1.05253,6.365348 -2.1104,12.729823 -3.16197,19.095323 -0.17804,1.07771 -1.48615,2.71117 -0.52723,3.23424 4.12469,2.24994 9.0355,2.58081 13.55325,3.87121 1.56525,-7.79858 2.73173,-15.6743 4.30159,-23.472533 1.43574,-8.00245 2.5095,-6.220079 -12.74544,-8.575937 -0.78279,-0.120888 -0.32415,1.550747 -0.46945,2.329374 -0.6082,3.259108 -1.17009,6.526717 -1.7378,9.793123 -0.39286,2.260423 -0.77418,4.522833 -1.16128,6.784253 -1.10318,6.73114 -2.27422,13.45803 -3.17549,20.22034 -0.17876,1.34132 -1.61043,3.30858 -0.46721,4.03255 3.98451,2.52327 8.86381,3.37855 13.50384,4.22316 0.57239,0.10419 0.32224,-1.11808 0.48337,-1.67712 0.7668,-4.3453 1.3925,-8.70986 1.98301,-13.08279 0.60582,-4.48634 1.3109,-9.93091 1.74748,-14.40657 0.25011,-2.56409 0.42266,-5.135161 0.63398,-7.702741 0.066,-2.137513 0.76727,-12.827942 -0.66026,-14.885794 -2.15466,-3.106031 -5.38906,-5.841101 -9.0287,-6.862376 -2.08561,-0.585222 -4.15454,1.41995 -5.92644,2.665981 -1.59482,1.1215 -6.29341,7.912867 -7.10418,9.030118 -3.50138,5.052875 -5.39985,7.70623 -8.76582,12.926277 -1.27001,1.969565 -2.48664,3.973085 -3.71653,5.967955 -0.8292,1.34496 -3.55374,2.91049 -2.46065,4.05139 10.93636,11.41471 12.17064,0.13856 10.98648,7.1897 1.56798,-5.29297 3.35814,-10.51275 4.98525,-15.787995 0.66802,-2.165757 1.41832,-4.310562 1.94902,-6.513994 0.54629,-2.268206 2.59718,-4.95781 1.27733,-6.881659 -2.39193,-3.486539 -7.12432,-4.555566 -10.68648,-6.833348 -1.14712,0.974934 -2.45011,1.791755 -3.44137,2.924802 -1.38786,1.586386 -3.90117,6.955628 -4.57978,8.445206 -2.73121,5.995106 -5.1503,12.158428 -6.91879,18.509638 -1.27768,7.6885 -3.17351,9.08917 9.48296,13.16878 1.53518,0.49484 2.59711,-1.9585 3.63779,-3.19083 0.99194,-1.17461 3.90902,-7.762 4.18457,-8.37837 0.95813,-2.14326 1.86988,-4.30695 2.80482,-6.46043 2.3949,-5.621557 3.74181,-8.648052 5.9349,-14.325314 0.79767,-2.064915 1.70429,-4.098486 2.29365,-6.232213 0.6097,-2.207332 2.869,-5.087464 1.29153,-6.747473 -3.04447,-3.20376 -7.95665,-4.245478 -12.33184,-4.870487 -1.19389,-0.17055 -1.54558,1.851776 -2.31837,2.777662 -1.00683,1.668949 -2.05623,3.312948 -3.02049,5.006848 -1.78049,3.127751 -6.22485,11.541683 -7.72869,14.479164 -2.20356,4.304202 -5.66991,11.259793 -7.59383,15.775243 -0.89235,2.09435 -1.62584,4.25288 -2.43876,6.37931 0.46457,3.38874 -1.41381,8.21247 1.39372,10.16622 7.48812,5.21098 10.87023,-0.3848 12.84645,-4.62852 0.77343,-1.66085 1.44784,-3.36705 2.10533,-5.07711 2.21622,-5.7642 2.95584,-8.3581 4.90212,-14.38495 1.35232,-5.084834 2.96987,-10.310247 3.51018,-15.581691 0.24571,-2.397175 1.49314,-5.235353 0.13792,-7.227885 -5.87397,-8.636283 -9.17392,-9.500375 -14.69205,-4.131757 -1.14592,1.114869 -1.77945,2.656647 -2.66918,3.984969 -1.00918,1.82517 -2.05044,3.63297 -3.02755,5.47551 -2.41349,4.551153 -5.02701,9.820256 -7.1255,14.497514 -1.97027,4.39144 -4.55066,10.54695 -6.00796,15.20503 -0.66651,2.13042 -1.1082,4.32478 -1.6623,6.48717 4.25317,2.13098 8.14629,5.23163 12.75952,6.39294 1.03736,0.26114 1.15728,-1.80673 1.61135,-2.7753 0.63761,-1.36008 1.13917,-2.78069 1.65474,-4.19156 2.55102,-6.9809 4.70164,-14.10873 6.62531,-21.285101 1.50133,-6.261204 2.48988,-9.624455 3.31803,-15.950213 0.28547,-2.180564 0.70095,-4.384239 0.52644,-6.576476 -0.20863,-2.620788 0.38937,-6.067525 -1.6637,-7.709778 -2.86526,-2.291932 -7.11139,-2.406348 -10.77684,-2.241441 -1.40672,0.06329 -2.06908,1.910611 -3.10362,2.865919 -0.94622,1.37977 -1.95225,2.720382 -2.83867,4.139313 -1.14707,1.836161 -2.1937,3.733451 -3.2575,5.619073 -4.76453,8.44523 -9.25622,17.082907 -12.848196,26.099044 0.667433,3.5892 -0.995222,8.68369 2.002298,10.76761 6.884958,4.78651 10.234868,-1.6565 12.080348,-5.43432 0.7485,-1.53221 1.4093,-3.1059 2.08805,-4.67026 2.10853,-4.85958 2.44911,-5.82932 4.41302,-10.771036 1.28521,-3.704413 4.80946,-11.394583 -0.14754,-14.531123 -7.48497,-4.736113 -10.54892,0.870791 -12.48543,5.026207 -0.76982,1.651913 -1.45313,3.343228 -2.13566,5.033077 -0.81473,2.017175 -1.57034,4.057721 -2.355521,6.08658 -1.479944,4.273845 -3.096577,8.581455 -4.136906,12.995865 -0.460896,1.95572 -1.977832,4.1542 -1.04898,5.93591 5.537577,10.62208 8.137887,11.95787 14.140507,5.10883 0.85889,-0.98001 1.03289,-2.3928 1.54934,-3.5892 2.04943,-6.30862 4.06001,-12.64327 5.46912,-19.134116 0.53654,-2.471433 1.09057,-4.94933 1.36244,-7.463679 0.26367,-2.438468 1.08987,-5.05348 0.2398,-7.354141 -1.21486,-3.287924 -4.07823,-5.70204 -6.11735,-8.553063 -2.73427,0.583718 -5.69756,0.509923 -8.20282,1.75115 -2.35469,1.166635 -6.466251,8.970234 -7.26738,10.413923 -1.459465,2.630051 -2.839355,5.303604 -4.231021,7.970149 -4.733684,9.070127 -4.213317,8.166187 -8.588626,17.207497 -3.534833,8.77008 -6.700477,10.32306 7.08641,17.14261 1.435319,0.70996 2.449718,-2.11002 3.381113,-3.4126 0.815739,-1.14082 1.241144,-2.51732 1.783757,-3.81057 1.38212,-3.29411 3.549734,-9.41141 4.697577,-12.57201 2.03509,-6.00316 3.43797,-9.77118 5.0201,-15.912387 0.60632,-2.353472 1.48956,-4.692952 1.55925,-7.122269 0.0875,-3.049249 1.45064,-7.403883 -1.09426,-9.085855 -3.37423,-2.230088 -8.205502,-0.636447 -12.128842,0.34648 -1.142518,0.286239 -1.116171,2.074437 -1.674254,3.111656 -0.672198,1.563746 -1.374764,3.114784 -2.016593,4.691237 -4.470747,10.980986 -8.239194,22.298448 -10.508372,33.950108 -1.195773,8.17951 -2.812232,8.35302 10.993353,12.63747 1.237181,0.38395 1.648587,-2.0209 2.251882,-3.16722 0.701659,-1.33324 2.675546,-8.24248 2.850124,-8.8564 0.659431,-2.31896 1.271293,-4.65118 1.906942,-6.97677 0.689594,-2.78313 1.422296,-5.55594 2.068782,-8.3494 1.394478,-6.025523 2.624948,-11.989416 3.571838,-18.102482 0.31827,-2.054781 1.80344,-12.344871 1.30791,-14.947193 -0.54421,-2.857961 -2.07531,-5.435947 -3.11297,-8.153919 -3.159291,-0.352187 -6.328219,-1.486516 -9.477866,-1.05656 -1.917957,0.261821 -5.687161,5.661403 -6.461506,6.773163 -1.192228,1.711736 -2.289979,3.487696 -3.400409,5.253591 -4.034494,6.415976 -3.987361,6.51125 -7.813231,13.239678 -0.620664,1.199809 -4.987837,9.29612 -5.535384,11.442352 -0.620514,2.43225 -3.103081,6.06985 -1.014246,7.46184 12.267192,8.1748 13.313978,0.40838 15.54876,-6.08906 1.732169,-5.405626 3.523314,-10.812971 4.80541,-16.34892 0.221518,-0.956479 1.989032,-9.110292 1.453105,-10.417831 -1.268685,-3.09531 -3.857265,-5.466583 -5.7859,-8.199874 -2.687989,1.06915 -5.617993,1.66292 -8.063965,3.207454 -0.819232,0.517308 -3.066947,6.456185 -3.203869,6.801702 -2.372506,5.986915 -4.607126,12.032662 -6.503797,18.189223 -1.532673,5.214463 -2.979118,9.829626 -4.178424,15.136836 -0.518853,2.29605 -1.070137,4.59665 -1.320843,6.9372 -0.246197,2.29844 -1.933194,5.44405 -0.164838,6.93279 3.422566,2.88137 8.410631,3.58841 12.880801,3.77245 1.246793,0.0513 1.33864,-2.10631 2.007962,-3.15947 2.22763,-5.64814 4.382172,-11.33282 6.247318,-17.11346 1.139375,-3.53126 2.956041,-9.578618 3.578116,-13.305642 0.308542,-1.84857 0.325573,-3.734115 0.488358,-5.601171 -0.73338,-2.140021 -0.276014,-5.230413 -2.20014,-6.420064 -2.915322,-1.802487 -6.801636,-1.64601 -10.206297,-1.250601 -1.287179,0.14949 -1.937615,1.73954 -2.743216,2.754524 -0.747225,0.941438 -1.279985,2.03535 -1.883534,3.074763 -1.073478,1.848707 -3.717737,6.75877 -4.651756,8.4803 -2.497984,4.728983 -4.983028,9.449271 -7.114593,14.358781 -0.485762,1.11883 -0.924991,2.25734 -1.376132,3.39057 -0.31704,0.79637 -1.662327,1.95536 -0.928338,2.39806 3.984074,2.40293 8.707966,3.28009 13.061952,4.92014 1.704782,-7.25792 3.101951,-14.58249 4.474226,-21.909505 0.968348,-5.90137 2.023155,-11.808389 2.236351,-17.800362 0.100285,-2.818607 0.03567,-6.819159 -0.647221,-9.622211 -0.37211,-1.527386 -1.05781,-2.960838 -1.586715,-4.441256 -1.393068,-1.374669 -2.402813,-3.30255 -4.179204,-4.124007 -1.853272,-0.85701 -4.064162,-0.852861 -6.093391,-0.626354 -1.321991,0.147564 -2.487272,0.989587 -3.606126,1.709031 -0.954402,0.613696 -1.764789,1.435357 -2.55312,2.25147 -2.037416,2.109223 -3.241583,4.14025 -4.904328,6.585259 -0.854744,1.578017 -1.790803,3.114627 -2.564233,4.734049 -3.711797,7.771842 -5.911612,16.238913 -7.290496,24.711696 -0.319894,1.96563 -0.52248,3.94857 -0.783719,5.92286 -0.372258,4.92113 -2.001332,14.12413 4.597998,16.59643 5.253675,1.96817 8.281932,-1.1036 10.271638,-4.4915 0.57482,-0.97875 0.982885,-2.04632 1.474324,-3.06948 4.351118,-10.966 8.597572,-22.041599 11.104835,-33.600218 0.140322,-0.829088 1.541635,-8.318082 1.283481,-9.579599 -0.544417,-2.66038 -0.454607,-6.38038 -2.868118,-7.624961 -8.526444,-4.396857 -11.178884,1.720948 -13.812843,6.757567 -5.260173,11.248538 -10.489485,22.516885 -16.214915,33.539081 -0.733668,1.41424 -1.456552,2.83412 -2.201,4.24271 -0.516456,0.97721 -1.682993,1.81376 -1.58156,2.91438 0.05969,0.64768 1.211072,-1.13224 1.775577,-0.80916 3.477834,1.99043 6.211445,5.08649 9.555575,7.29419 1.050814,0.69371 -2.651718,-8.45594 0.601813,-3.72919 1.96084,-10.33475 4.188195,-20.617449 6.100328,-30.962025 0.622041,-3.508306 1.361044,-7.352061 1.779644,-10.90641 0.302061,-2.564837 1.153112,-9.048787 -1.211668,-10.933041 -2.553311,-2.034479 -6.203788,-2.449187 -9.468022,-2.506612 -1.279961,-0.02252 -2.057466,1.523836 -3.0862,2.285751 -0.625184,0.788183 -1.290934,1.545823 -1.875549,2.364547 -0.879309,1.231429 -3.654097,5.710399 -4.287086,6.759305 -2.866933,4.750697 -5.532228,9.618286 -7.888554,14.644478 -0.815819,1.726211 -1.651598,3.443129 -2.447457,5.178631 -1.165011,2.540503 -2.63629,5.962894 -3.750535,8.595356 -0.286703,0.67736 -1.542428,1.80395 -0.84523,2.0383 13.099592,4.40319 11.059339,-2.930315 12.175235,4.49416 0.175779,-3.81018 0.682104,-7.61308 1.195367,-11.390285 0.87172,-6.415159 1.892308,-12.817787 3.330458,-19.133185 0.964184,-3.736403 1.408346,-5.758164 2.591533,-9.309507 1.135843,-3.409236 2.647609,-6.666196 4.174284,-9.912406 3.676578,-9.19145 -9.322094,-14.39092 -12.998675,-5.199469 z"
          fill="#000000" stroke-width="0.264583" />
</svg>