<svg width="298mm" height="245mm" version="1.1" viewBox="0 0 298 245" xmlns="http://www.w3.org/2000/svg">
 <g>
  <path d="m73.772 0.90744c-3.0058 0.065798-6.0777 1.6685-8.2124 5.4183v0.0010335c-2.0641 3.6038-4.334 7.0749-6.4518 10.645-0.11102 0.18714-3.8741 6.6836-4.0907 7.0574-3.9954 6.7122-7.7193 13.59-11.532 20.413-4.9348 8.7028-9.8464 17.419-14.712 26.164-0.6986 1.2663-1.3981 2.5317-2.0955 3.7987-1.6144 2.9329-2.3281 4.1811-3.8359 7.1856-1.7186 3.4244-3.275 6.9254-4.8209 10.435-3.4722 7.5094-6.1145 15.383-8.724 23.245-1.9577 6.237-4.0177 12.448-5.609 18.8-0.90635 3.6178-1.0274 4.4557-1.7275 8.0036-0.00885 0.0526-0.85676 4.9446-0.87953 5.4514-0.2042 4.5433 0.2437 9.2822 5.657 11.724 4.7837 2.1581 7.4922 1.2705 9.9591-0.61754 0.88523-0.23355 1.7972-0.59648 2.7275-1.1054 2.0392-1.246 4.197-2.2662 6.2565-3.4737 0.92484-0.54226 2.5449-1.5697 3.4814-2.1585 2.3379-1.3131 4.4979-2.932 6.8445-4.2251 1.7104-0.79213 3.4405-1.543 5.1578-2.3218-0.2777 0.91296-0.4949 1.8475-0.74517 2.7699-0.02212 0.0489-0.047873 0.10054-0.069763 0.14935-0.42168 0.93937-0.77654 1.9087-1.1648 2.8634-0.24963 1.4591-1.8561 3.5147-0.97255 4.4757-5.0015 4.3276-3.9345 12.626 1.3265 15.862-1.0639 5.7369 2.6919 12.383 10.658 11.75 2.7484-0.095 5.4555-0.49864 8.1287-1.1457 2.3586-0.62401 4.4858-1.8447 6.627-2.9972 1.3766-0.79487 2.6917-1.6946 3.9713-2.6469 0.51578 0.64165 1.0419 1.2731 1.5813 1.8903-2.2968 9.0911 2.6681 9.0379 14.985 11.312 0.49072 0.0906 3.4524-3.8276 3.9233-4.4287 3.8215-4.9228 7.9534-9.5781 12.12-14.189 1.7554-1.9827 3.6125-3.8614 5.5077-5.6989-0.0616 0.11222-0.12672 0.22158-0.18758 0.33434-1.0803 1.958-2.2734 3.8433-3.4401 5.7469-1.1659 1.984-2.1417 4.0558-2.8794 6.2472-0.0711 0.20218-0.12291 0.41248-0.21343 0.60617-0.0274 0.0588 0.05989-0.24579 0.02119-0.19431-0.44826 0.59619-0.69991 1.3256-1.0402 1.9937-0.64755 1.2711-0.41126 0.81946-1.0247 1.956-0.97664 1.8546-1.9949 3.6689-2.9678 5.5304-0.82294 1.3008-1.3667 2.752-2.0164 4.1429-0.04309 0.0922 0.141-0.37638 0.080098-0.29559-0.1764 0.23401-0.29043 0.51152-0.43563 0.76739-4.8835 9.068-0.43412 7.4857 13.389 14.388 0.50897 0.25415 0.8837-0.73027 1.3017-1.1234 0.47785-0.44945 0.92261-0.93491 1.3839-1.4025 2.1631-2.3476 3.965-5.0475 6.2652-7.258 2.3552-2.3182 4.8027-4.5303 7.1262-6.8833 1.7719-1.7704 3.7284-3.3247 5.5568-5.0317 1.5762-1.4085 2.9518-3.021 4.3253-4.6344-0.40301 0.75897-0.79855 1.5222-1.2113 2.2758-1.624 2.7861-3.2823 5.55-4.8767 8.3545-0.59293 1.0457-1.1301 2.1436-1.7384 3.1771-0.66781 1.1346-1.4195 2.218-2.0593 3.3714-0.34317 0.58492-0.70063 1.1615-1.0299 1.7549-0.87852 1.5832-1.548 3.2865-2.467 4.8478-1.2838 2.5885-2.4677 5.175-2.7595 8.121 3.884 3.4231 7.0188 8.0551 11.652 10.27 2.3703 1.1329 6.5654-4.7547 7.7453-6.6332 0.0551-0.0834 0.10851-0.16765 0.16329-0.25115 0.77611 0.95989 1.5216 2.0235 2.188 2.9921-0.0294-0.0332-0.10746-0.13928-0.08785-0.09922 0.48728 0.99582 1.0842 1.9432 1.6382 2.9006 1.1889 1.8952 1.875 2.6946 3.2153 4.2504 2.6e-4 3e-3 2.5e-4 0.00372 5.1e-4 0.00672-0.5943-0.66143-0.27817-0.17889 0.03928 0.30128 0.12248 0.84627 0.3463 1.6772 0.67231 2.4665 0.0609 0.54252 0.11968 1.0857 0.18913 1.6299 0.50924 2.9443 0.99743 4.0544 3.1771 6.9587 0.43237 0.57614 1.0931 0.9218 1.6397 1.3829 1.8077 1.305 3.8938 1.9338 5.9846 2.5476 1.4992 0.47291 3.0321 0.81778 4.5982 1.0351 1.9354 0.26184 3.838 0.17627 5.7454-0.30644 0.98827-0.25009 1.8265-0.64953 2.7389-1.0542 1.4862-0.62622 2.9032-1.4061 4.3031-2.2133 0.38724-0.20122 0.76624-0.41556 1.1415-0.63614 3.5659 4.6684 11.101 6.0184 15.73-0.89038 0.81345-1.1648 1.5961-2.3515 2.3756-3.5404 3.0073 2.8028 6.6543 4.8716 9.9446 7.3494 0.57167-0.50693 1.189-0.96676 1.7151-1.5208 0.34972-0.36831 0.7685-1.0204 1.1203-1.5911 0.67107-0.78425 1.3313-1.5696 1.9503-2.3988 0.0219-0.0293-0.04793 0.0555-0.07183 0.0832 0.19414-0.28049 0.43117-0.53551 0.5824-0.84129 0.85085-1.7204 0.8581-1.7301 1.1167-3.0866 8e-3 -0.0411-0.04377 0.14766-0.06097 0.10955 0.0512-0.25245 0.15681-0.48861 0.27491-0.72088 0.17331-0.31089 0.33927-0.62671 0.5116-0.9307 9e-3 -0.0157-0.01567 0.06825-0.00517 0.05375 0.0903-0.12117 0.16512-0.25319 0.24753-0.37983 0.24336-0.40174 0.48082-0.80645 0.71469-1.2128-0.0744 0.35226-0.14395 0.70522-0.20051 1.0614-0.23227 1.8502-0.416 3.7289-0.22375 5.5919 0.46911 3.355 1.626 5.9952 4.9909 7.567 0.95969 0.4483 2.0794 0.40415 3.1192 0.60616 1.2473-0.35536 2.5425-0.57386 3.7424-1.0661 0.53642-0.22005 0.97101-0.64391 1.3937-1.0408 0.90792-0.85237 1.541-1.8391 2.1337-2.9052 0.19364-0.37532 0.40907-0.73969 0.58084-1.1255 0.67497-1.5161 0.94365-3.155 1.4345-4.731 0.13315-0.46989 0.25726-0.94246 0.38499-1.4139-0.22878 1.5207-0.46741 3.0404-0.72244 4.5568-0.59609 4.5295 0.61619 7.2258 6.9262 9.0594 3.1265 0.90854 5.3863-2.2332 6.6084-4.3196 0.19644-0.33538 0.29245-0.71994 0.43874-1.08 0.1-0.65668 0.19887-1.2194 0.28525-1.7498 0.0541-0.0989 0.10756-0.19802 0.16123-0.29714 0.28959 1.3436 2.2754-1.003 11.484 0.86765 1.1691 0.49584 1.8182 0.75409 2.11 0.47284 0.0138 3e-3 0.0265 0.0063 0.0403 0.0093-0.0646 0.0912-0.0936 0.23991-0.15864 0.33331-0.072 0.10346 0.13296-0.19304 0.21911-0.30799 0.0178 0.0168 0.0158 0.04456 0.0062 0.07596 0.0667-0.0887 0.11207-0.16265 0.06924-0.1757 0.16644-0.21665 0.33486-0.43172 0.49765-0.65112 0.0655-0.0883 0.12362-0.18203 0.18552-0.27285 0.4254-0.5837 0.8457-1.1737 1.2433-1.7782 1.9086 0.12453 3.818 0.17436 5.734 0.12299 3.1035-0.0407 6.2699-0.0226 9.2372-1.0558 0.49291-0.2328 1.0002-0.43798 1.479-0.69866 1.6939-0.92225 3.0984-2.2885 4.4499-3.6396 1.6104-1.7195 3.215-3.4543 4.5341-5.4147 0.81126-0.18575 1.6671-0.24842 2.4164-0.60668 2.5735-1.2305 3.6227-2.2899 4.9852-4.6845 1.0412-1.8299 1.5418-4.2882 2.0283-6.3304 0.36536-1.5946 0.57166-3.2288 0.96894-4.8168 0.09379-0.37505 0.21048-0.74748 0.33331-1.1188 0.8837-1.7369 1.6861-3.5131 2.3363-5.3526 0.21122-0.68857 0.44882-1.3694 0.63355-2.0655 0.40031-1.5087 0.70903-3.2385 0.81959-4.8018 0.0475-0.6711 0.70366-1.8104 0.06356-2.0174-2.0071-0.64903-4.0809-1.0267-6.1743-1.326 0.34606-1.166 0.67523-2.3375 1.0056-3.5078 0.0572-0.20328 1.0829-3.8439 1.0992-3.9062 0.61711-2.367 1.0703-4.7741 1.5343-7.1742 0.71279-3.5422 1.3327-7.1115 1.7198-10.705 0.16846-3.2756 0.0744-6.557-0.24133-9.8227-0.29141-2.1712-0.66015-5.318-2.3828-6.8854-0.49182-0.44747-0.98979-0.84209-1.4929-1.1901-0.059-0.56884-0.17424-1.1243-0.36535-1.6562-0.0886-0.24653-0.19798-0.48365-0.31782-0.71572 1.0738-2.0304 2.198-4.0313 3.3125-6.0405 1.2499-2.3085 2.5173-4.6218 3.4721-7.0714 0.17137-1.0069 0.94452-2.0947 0.51418-3.021-1.0527-2.2659-2.2463-4.8482-4.2804-6.2503 0.74987-1.7181 1.4777-3.4452 2.036-5.2369 0.12583-0.51678 0.87717-3.2808 0.62476-3.7202-1.254-2.1831-2.3222-4.9271-4.3031-6.38 1.0211-1.9362 1.9504-3.9184 2.868-5.9061 0.46932-1.3042 0.96216-2.6496 1.1586-4.0292 0.0776-0.54515 0.24579-1.1006 0.15864-1.6443-0.21214-1.3238-0.69619-2.5893-1.0444-3.884-0.13203-0.05104-0.262-0.11065-0.39326-0.16485 0.25578-1.8324 0.19409-2.2385-0.17725-3.436 0.53301-0.95234 1.0535-1.9122 1.556-2.8825 1.7668-3.4479 3.548-7.0405 3.5703-11.006 0-3.5787-1.8324-5.8568-4.1687-6.8482 7.1764-10.51-5.8312-21.201-13.98-13.231-0.28789-0.09575-0.58108-0.17705-0.87747-0.24391 1.5264-8.617-8.039-14.468-14.572-9.8397-2.434-1.2305-6.7242-3.1148-13.482-7.3065-0.46045-0.28561-0.74591 0.62199-1.0873 1.1886-0.33132 0.27793-0.64413 0.55108-0.72812 0.80925 0.0122-0.01209 0.02272-0.025187 0.03462-0.037207 0.19579-0.21563 0.38264-0.4406 0.58756-0.64699 0.0347-0.035-0.1076 0.16629-0.07441 0.12971 0.06251-0.068837 0.1223-0.15789 0.18035-0.25425 0.10683-0.08965 0.21094-0.17838 0.31471-0.26923-0.0648 0.077239-0.14589 0.17656-0.18965 0.22531-0.29189 0.35509-0.58001 0.71234-0.86248 1.0738-0.0192-0.07252-0.0151-0.14633 0.0093-0.22118-1.0494 1.0706-2.0063 2.2341-2.9192 3.4323-0.59072 0.24219-1.1877 0.53066-1.7916 0.89814-1.2089 0.73666-2.3405 1.5884-3.4587 2.389-0.82484 0.58944-1.7249 1.1817-2.6861 1.7182 0.15755-0.66884 0.30402-1.3413 0.4253-2.0205 0.0536-0.55362 0.25216-1.1126 0.16071-1.6609-1.1799-7.0756-1.4504-8.2203-9.8304-10.811-1.2562-1.7878-4.0217-3.1401-9.401-5.6741-1.3294-0.62623-2.8586 0.67695-4.2189 1.2278-1.3627 0.55185-3.3197 2.1771-4.4778 3.067-2.1092 1.7678-4.3335 3.4118-6.3402 5.3082-1.5922 1.5047-1.7214 1.7354-3.1182 3.3574-0.89184 1.1472-1.7859 2.2929-2.6624 3.4525 1.0143-1.7817 1.9955-3.5829 3.0241-5.3568 0.81684-1.3851 1.5063-2.8434 2.2453-4.2726 0.13121-0.25359 0.30502-0.48592 0.40308-0.75499 0.4019-1.1029 1.715-2.3624 1.093-3.3502-2.8065-4.4565-7.0272-7.7687-10.541-11.653-1.6302 0.62604-3.3123 1.1244-4.8912 1.8779-0.54245 0.2589-3.2042 2.4285-3.6292 2.791-0.60188 0.51346-1.1873 1.042-1.7642 1.5792-0.34472-5.6393-0.95056-5.3364-12.793-7.2771-1.0031-0.16438-1.7808 1.0153-2.6205 1.6056-1.779 1.2506-3.2557 2.9914-4.7604 4.561-3.3045 3.3285-6.3775 6.8848-9.325 10.551-3.2617 4.0381-6.2263 8.3107-9.2987 12.499-0.82162 1.159-1.657 2.3091-2.5104 3.4448 0.65812-0.94794 1.3114-1.9 1.9487-2.8644 2.2781-3.3609 4.5159-6.7487 6.814-10.094 1.3619-1.7874 2.363-3.819 3.5068-5.7506 0.36406-0.61476 0.7853-1.191 1.1715-1.7911 2.8563-4.4938 4.6355-10.317-1.8144-15.191-6.882-5.2004-11.7 0.16338-15.319 4.2214-3.5985 3.9812-6.6507 8.4244-9.7167 12.841-2.6029 3.8376-4.9736 7.8431-7.2936 11.869-2.389 4.1451-4.6299 8.3767-6.8234 12.634-0.0267 0.03899-0.05402 0.077277-0.08062 0.11627-0.22762 0.36415-0.46484 0.72206-0.69556 1.0842 1.3981-2.877 2.4382-5.916 3.6861-8.8599 0.17871-0.4216 1.1539-2.4723 1.2981-2.7776 0.48104-0.89653 0.9126-1.8194 1.3415-2.7435 0.83512-1.4146 1.6714-2.8283 2.5053-4.2437 2.1185-3.5449 4.2059-7.1131 6.2963-10.674 0.33931-0.53276 0.70203-1.0505 1.018-1.5984 0.28127-0.48766 1.1871-1.133 0.77153-1.5043-11.542-10.312-12.341-16.47-17.289-8.6403-1.2069 1.9325-2.3055 3.9347-3.5874 5.8188-1.1099 1.9472-2.2873 3.8491-3.4174 5.7836-1.0584 1.8066-2.041 3.6511-2.9828 5.519-1.6841 2.8503-3.3729 5.6983-5.0782 8.5354-3.3995 5.591-6.3913 11.427-9.5033 17.19-4.2393 7.5125-8.5297 14.994-12.807 22.484-2.2874 4.2236-4.7711 8.3391-6.8802 12.664-0.46206 0.94757-0.90559 1.9044-1.3451 2.8634-0.30129 0.43491-0.59983 0.87207-0.90124 1.3069 0.21667-0.66029 0.43978-1.3181 0.678-1.9715 1.7625-4.2062 3.7801-8.2813 6.0229-12.238 3.1681-5.5493 6.1938-11.183 9.324-16.756 3.0483-5.6112 5.9046-11.328 8.708-17.073 2.0784-4.1763 4.403-8.206 6.5717-12.332 2.2434-4.0736 4.5024-8.1427 6.6228-12.285 0.56848-1.2895 2.6793-5.8955 2.2924-6.8673-1.5621-3.9237-2.955-8.8855-6.6642-10.705-5.7498-2.821-8.4019 0.84042-10.95 3.8814-1.2053 1.702-2.3649 3.4384-3.5843 5.1299-1.6086 2.1601-3.3905 4.1729-5.1325 6.2172-2.4475 3.0814-4.6163 6.3695-6.8037 9.6506-3.0533 4.3101-5.9434 8.735-8.892 13.122-2.6957 4.083-5.3536 8.1896-7.9375 12.35-2.3518 4.0396 0.63872-1.061-2.3006 3.8127-1.6525 2.74-3.1543 5.5765-4.916 8.2465-3.2939 5.1907-6.5574 10.403-9.8661 15.583-1.4746 2.3202-2.9346 4.6517-4.4214 6.9639 0.45244-0.96604 0.91158-1.9289 1.3885-2.883 1.3992-2.7992 2.0545-3.9361 3.591-6.7278 0.68591-1.2462 1.3743-2.4912 2.0614-3.7367 4.8588-8.7342 9.7655-17.439 14.694-26.132 3.7619-6.7334 7.4361-13.521 11.379-20.145 1.2948-2.2349 2.5655-4.4845 3.8825-6.7055 2.2121-3.7304 4.5884-7.3559 6.736-11.127 4.6964-8.2496-1.5987-15.545-8.2114-15.401v-5.1677e-4zm180.01 237.39c-0.0436 0.0581-0.0839 0.11402-0.11938 0.1664-0.0304 0.10029-0.09666 0.26616-0.07596 0.19844 0.0328-0.10712 0.16497-0.26353 0.19534-0.36484zm-0.11938 0.1664c6e-3 -0.0191 0.01227-0.02442 0.01447-0.03772 0.0205-0.12748-0.1353 0.31707-0.05632 0.09612 8e-3 -0.0152 0.02935-0.04 0.04185-0.0584zm-111.98-218.15c-0.45394 0.70598-0.92835 1.4487-1.279 2.0366-0.38432 0.64436-0.73638 1.3102-1.1043 1.9658-0.55541-1.8586 1.0755-2.5769 2.3833-4.0023zm26.917 3.2975c0.067-0.07207-0.06024 0.1907-0.10335 0.28009-0.0252 0.05225-0.05587 0.10126-0.08217 0.15296-1e-3 -0.02103 1e-3 -0.043666 0-0.064596 0.0617-0.12282 0.09281-0.26853 0.18552-0.36845zm19.921 2.0309c-0.0279 0.0577-0.06883 0.14761-0.09043 0.18914-0.13967 0.26984-0.27478 0.54256-0.41083 0.81442 0.0413-0.32037 0.26527-0.65915 0.50126-1.0036zm-56.256 1.496c0.0141-0.02139-0.01614 0.05043-0.03204 0.070279-0.25194 0.31258-0.44192 1.0262-0.7307 1.1452 0.14445-0.26705 0.15529-0.30168 0.39584-0.6351 0.12237-0.19347 0.2414-0.38904 0.3669-0.58033zm80.582 7.7354c0.0865 0.0135 0.02504 0.089426-0.08836 0.18707 0.0236-0.05947 0.04683-0.11868 0.07183-0.1788 7e-3 -9.49e-4 0.00853-0.009368 0.01653-0.008268zm-124 148.67c-0.0021 0.0317-0.009515 0.06616-0.010335 0.09716-0.0017 0.0654-0.082689 0.24693-0.067179 0.18345 0.02303-0.0943 0.051424-0.18713 0.077514-0.28061zm21.075 17.525c-0.14039 0.47342-0.62866 1.0526-0.78496 1.5244-7e-3 0.0213-0.06118 0.06267-0.05168 0.04237 0.0861-0.18361 0.18883-0.35873 0.28319-0.53795 0.19245-0.33933 0.37345-0.68388 0.55345-1.0289zm9.1131 4.717c-0.12288 0.18377-0.24781 0.38578-0.31522 0.47646-0.0462 0.0622 0.0647-0.14274 0.1111-0.20464 0.0674-0.0899 0.13239-0.18472 0.20412-0.27182zm83.756 32.777c-0.0572 0.0705-0.1239 0.15751-0.16846 0.20826-0.0367 0.0418 0.0642-0.0914 0.10077-0.13333 0.0221-0.0254 0.04529-0.04983 0.06769-0.07493zm24.197 1.2495c1.2506 1.283 2.9914 2.1135 4.6194 2.9745-0.8261-0.0494-1.6234-0.14758-2.2391-0.64802-1.1289-0.91753-1.8794-1.6568-2.3802-2.3265z" fill="#fd7800" stroke-width=".36604"/>
 </g>
</svg>
